<svg width="390" height="114" viewBox="0 0 390 114" fill="none" xmlns="http://www.w3.org/2000/svg">
<path d="M186.801 83.8374C192.344 81.6811 189.59 70.1115 182.152 65.7512C174.711 61.3876 165.41 62.5184 152.203 71.5649C138.996 80.608 115.371 100.793 79.4727 101.601C43.5703 102.406 14.7383 72.0471 14.5508 43.3047C14.3672 14.559 36.6875 4.3851 50.0781 4.70771C63.4727 5.03031 75.0078 13.4282 75.0078 23.9247C75.0078 34.4212 63.4727 34.0986 60.125 29.0932C57.0859 24.5462 61.4258 22.1487 59.1953 20.8549C56.9609 19.5645 53.4297 21.1775 53.4297 25.7007C53.4297 30.2206 59.6172 35.9358 66.6367 36.6829C77.2383 37.8137 83.7461 27.3172 78.3555 16.0124C72.9102 4.59904 54.3594 -6.43403 31.293 5.51252C8.22655 17.4659 1.71483 45.8856 13.25 71.5649C24.7812 97.2408 49.1523 109.996 77.7969 113.065C106.441 116.135 132.488 104.026 147.18 94.8161C161.875 85.6134 166.711 82.221 175.27 82.221C183.824 82.221 181.406 85.936 186.801 83.8374Z" fill="black"/>
<path d="M201.078 83.8374C195.539 81.6811 198.289 70.1115 205.734 65.7512C213.172 61.3876 222.473 62.5184 235.68 71.5649C248.887 80.608 272.508 100.793 308.41 101.601C344.309 102.406 373.141 72.0471 373.328 43.3047C373.516 14.559 351.195 4.3851 337.801 4.70771C324.41 5.03031 312.875 13.4282 312.875 23.9247C312.875 34.4212 324.41 34.0986 327.758 29.0932C330.801 24.5462 326.457 22.1487 328.684 20.8549C330.918 19.5645 334.453 21.1775 334.453 25.7007C334.453 30.2206 328.262 35.9358 321.246 36.6829C310.645 37.8137 304.133 27.3172 309.527 16.0124C314.973 4.59904 333.523 -6.43403 356.59 5.51252C379.656 17.4659 386.164 45.8856 374.633 71.5649C363.098 97.2408 338.73 109.996 310.082 113.065C281.438 116.135 255.395 104.026 240.703 94.8161C226.004 85.6134 221.168 82.221 212.613 82.221C204.055 82.221 206.477 85.936 201.078 83.8374Z" fill="black"/>
</svg>
