<svg xmlns="http://www.w3.org/2000/svg" width="450" viewBox="0 0 450 375" height="375" version="1.0"><path d="M 217.800781 220.671875 C 223.34375 218.191406 220.589844 204.882812 213.152344 199.867188 C 205.710938 194.847656 196.410156 196.148438 183.203125 206.554688 C 169.996094 216.957031 146.371094 240.175781 110.472656 241.105469 C 74.570312 242.03125 45.738281 207.109375 45.550781 174.046875 C 45.367188 140.980469 67.6875 129.277344 81.078125 129.648438 C 94.472656 130.019531 106.007812 139.679688 106.007812 151.753906 C 106.007812 163.828125 94.472656 163.457031 91.125 157.699219 C 88.085938 152.46875 92.425781 149.710938 90.195312 148.222656 C 87.960938 146.738281 84.429688 148.59375 84.429688 153.796875 C 84.429688 158.996094 90.617188 165.570312 97.636719 166.429688 C 108.238281 167.730469 114.746094 155.65625 109.355469 142.652344 C 103.910156 129.523438 85.359375 116.832031 62.292969 130.574219 C 39.226562 144.324219 32.714844 177.015625 44.25 206.554688 C 55.78125 236.089844 80.152344 250.761719 108.796875 254.292969 C 137.441406 257.824219 163.488281 243.894531 178.179688 233.300781 C 192.875 222.714844 197.710938 218.8125 206.269531 218.8125 C 214.824219 218.8125 212.40625 223.085938 217.800781 220.671875 Z M 217.800781 220.671875"/><path d="M 232.078125 220.671875 C 226.539062 218.191406 229.289062 204.882812 236.734375 199.867188 C 244.171875 194.847656 253.472656 196.148438 266.679688 206.554688 C 279.886719 216.957031 303.507812 240.175781 339.410156 241.105469 C 375.308594 242.03125 404.140625 207.109375 404.328125 174.046875 C 404.515625 140.980469 382.195312 129.277344 368.800781 129.648438 C 355.410156 130.019531 343.875 139.679688 343.875 151.753906 C 343.875 163.828125 355.410156 163.457031 358.757812 157.699219 C 361.800781 152.46875 357.457031 149.710938 359.683594 148.222656 C 361.917969 146.738281 365.453125 148.59375 365.453125 153.796875 C 365.453125 158.996094 359.261719 165.570312 352.246094 166.429688 C 341.644531 167.730469 335.132812 155.65625 340.527344 142.652344 C 345.972656 129.523438 364.523438 116.832031 387.589844 130.574219 C 410.65625 144.324219 417.164062 177.015625 405.632812 206.554688 C 394.097656 236.089844 369.730469 250.761719 341.082031 254.292969 C 312.4375 257.824219 286.394531 243.894531 271.703125 233.300781 C 257.003906 222.714844 252.167969 218.8125 243.613281 218.8125 C 235.054688 218.8125 237.476562 223.085938 232.078125 220.671875 Z M 232.078125 220.671875"/></svg>