<svg width="638" height="375" viewBox="0 0 638 375" fill="none" xmlns="http://www.w3.org/2000/svg">
<path d="M318.891 32.4648L473.328 186.906L318.887 341.344L164.449 186.902L318.891 32.4648Z" fill="#C7C1AF"/>
<path d="M318.875 356.75L149 186.875L318.875 17L488.75 186.875L318.875 356.75ZM151.164 186.875L318.875 354.586L486.586 186.875L318.875 19.1641L151.164 186.875Z" fill="#C7C1AF"/>
<path d="M95.3828 145C94.1367 145 93.4102 145.621 93.0977 146.867L81.5781 198.551L70.0586 146.867C69.75 145.621 69.0234 145 67.7773 145H54.0781C52.7266 145 52 145.727 52 147.074V225.949C52 227.297 52.7266 228.023 54.0781 228.023H63.625C64.9727 228.023 65.6992 227.297 65.6992 225.949V179.246H66.4258L76.7031 226.156C77.0117 227.402 77.7383 228.023 78.9844 228.023H84.0703C85.3164 228.023 86.043 227.402 86.3516 226.156L96.6289 179.246H97.3555V225.949C97.3555 227.297 98.082 228.023 99.4297 228.023H109.082C110.43 228.023 111.156 227.297 111.156 225.949V147.074C111.156 145.727 110.43 145 109.082 145H95.3828Z" fill="#7B1914"/>
<path d="M121.531 213.078C121.531 222.836 126.722 228.023 136.476 228.023H148.101C157.855 228.023 163.047 222.836 163.047 213.078V159.941C163.047 150.187 157.855 145 148.101 145H136.476C126.722 145 121.531 150.187 121.531 159.941V213.078ZM139.488 214.637C136.789 214.637 135.336 213.285 135.336 210.484V162.539C135.336 159.84 136.789 158.387 139.488 158.387H145.508C148.203 158.387 149.656 159.84 149.656 162.539V210.484C149.656 213.285 148.203 214.637 145.508 214.637H139.488Z" fill="#7B1914"/>
<path d="M205.282 145C204.138 145 203.622 145.621 203.622 146.66V190.453H202.997L187.224 146.348C186.911 145.414 186.29 145 185.356 145H175.079C174.044 145 173.419 145.621 173.419 146.66V226.363C173.419 227.402 174.044 228.023 175.079 228.023H185.876C187.017 228.023 187.536 227.402 187.536 226.363V182.359H188.052L203.931 226.676C204.243 227.609 204.864 228.023 205.802 228.023H216.075C217.11 228.023 217.735 227.402 217.735 226.363V146.66C217.735 145.621 217.11 145 216.075 145H205.282Z" fill="#7B1914"/>
<path d="M227.697 145C226.658 145 226.037 145.621 226.037 146.66V157.039C226.037 158.074 226.658 158.699 227.697 158.699H239.736V226.363C239.736 227.504 240.357 228.023 241.396 228.023H252.189C253.33 228.023 253.849 227.504 253.849 226.363V158.699H265.888C267.029 158.699 267.549 158.074 267.549 157.039V146.66C267.549 145.621 267.029 145 265.888 145H227.697Z" fill="#7B1914"/>
<path d="M317.258 146.66C317.258 145.621 316.844 145 315.598 145H277.407C276.473 145 275.848 145.621 275.848 146.66V226.363C275.848 227.402 276.473 228.023 277.407 228.023H315.598C316.844 228.023 317.258 227.402 317.258 226.363V215.984C317.258 214.844 316.844 214.324 315.598 214.324H289.653V193.359H309.473C310.512 193.359 311.133 192.738 311.133 191.598V181.32C311.133 180.18 310.512 179.559 309.473 179.559H289.653V158.801H315.598C316.844 158.801 317.258 158.074 317.258 157.039V146.66Z" fill="#7B1914"/>
<path d="M369.25 159.941C369.25 150.187 363.957 145 354.305 145H342.684C332.926 145 327.633 150.187 327.633 159.941V213.078C327.633 222.836 332.926 228.023 342.684 228.023H354.305C363.957 228.023 369.25 222.836 369.25 213.078V201.871C369.25 200.832 368.629 200.211 367.59 200.211H357.211C356.071 200.211 355.551 200.832 355.551 201.871V210.172C355.551 212.977 354.098 214.324 351.399 214.324H346.004C343.305 214.324 341.852 212.977 341.852 210.172V162.848C341.852 160.152 343.203 158.699 346.004 158.699H351.399C354.098 158.699 355.551 160.152 355.551 162.848V171.152C355.551 172.187 356.071 172.812 357.211 172.812H367.59C368.629 172.812 369.25 172.187 369.25 171.152V159.941Z" fill="#7B1914"/>
<path d="M429.648 228.023C430.895 228.023 431.309 227.402 431.102 226.258L413.875 146.453C413.668 145.414 413.043 145 412.109 145H397.684C396.75 145 396.129 145.414 395.922 146.453L378.691 226.258C378.383 227.402 378.898 228.023 380.043 228.023H391.145C392.082 228.023 392.598 227.504 392.809 226.57L395.609 211.418H414.082L416.988 226.57C417.195 227.504 417.715 228.023 418.648 228.023H429.648ZM411.488 199.379H398.203L404.844 163.16L411.488 199.379Z" fill="#7B1914"/>
<path d="M483.095 159.941C483.095 150.187 477.904 145 468.15 145H442.099C441.064 145 440.439 145.621 440.439 146.66V226.363C440.439 227.402 441.064 228.023 442.099 228.023H452.896C453.931 228.023 454.556 227.402 454.556 226.363V200.211H461.716L468.669 226.57C468.877 227.504 469.396 228.023 470.435 228.023H481.228C482.369 228.023 482.99 227.402 482.681 226.156L475.517 198.965C480.502 196.785 483.095 192.219 483.095 185.266V159.941ZM454.556 186.512V158.699H464.83C467.529 158.699 468.982 160.152 468.982 162.848V182.359C468.982 185.059 467.529 186.512 464.83 186.512H454.556Z" fill="#7B1914"/>
<path d="M507.586 214.324H532.285C533.426 214.324 533.946 214.945 533.946 215.984V226.363C533.946 227.504 533.426 228.023 532.285 228.023H495.129C494.094 228.023 493.469 227.504 493.469 226.363V146.66C493.469 145.621 494.094 145 495.129 145H505.926C507.067 145 507.586 145.621 507.586 146.66V214.324Z" fill="#7B1914"/>
<path d="M544.32 213.078C544.32 222.836 549.511 228.023 559.265 228.023H570.89C580.644 228.023 585.836 222.836 585.836 213.078V159.941C585.836 150.187 580.644 145 570.89 145H559.265C549.511 145 544.32 150.187 544.32 159.941V213.078ZM562.277 214.637C559.578 214.637 558.125 213.285 558.125 210.484V162.539C558.125 159.84 559.578 158.387 562.277 158.387H568.297C570.992 158.387 572.445 159.84 572.445 162.539V210.484C572.445 213.285 570.992 214.637 568.297 214.637H562.277Z" fill="#7B1914"/>
<path d="M181.585 259.805C181.585 260.493 181.453 261.141 181.195 261.743C180.933 262.348 180.578 262.875 180.132 263.321C179.683 263.77 179.152 264.125 178.538 264.383C177.933 264.645 177.288 264.774 176.601 264.774H169.007V247.008H175.945C176.546 247.008 177.117 247.129 177.648 247.368C178.187 247.598 178.656 247.915 179.054 248.321C179.46 248.719 179.777 249.188 180.007 249.727C180.234 250.27 180.351 250.848 180.351 251.461C180.351 252.235 180.226 252.93 179.976 253.555C179.726 254.18 179.32 254.711 178.757 255.149C179.703 255.504 180.413 256.102 180.882 256.946C181.351 257.79 181.585 258.743 181.585 259.805ZM171.617 254.196C172.281 254.219 172.898 254.227 173.46 254.227H175.976C176.609 254.227 177.14 253.989 177.57 253.508C178.007 253.032 178.226 252.458 178.226 251.79C178.226 251.102 178.007 250.532 177.57 250.071C177.14 249.602 176.609 249.368 175.976 249.368H171.617V254.196ZM171.617 262.336C171.73 262.36 171.984 262.368 172.382 262.368H176.601C176.953 262.368 177.281 262.297 177.585 262.149C177.898 261.993 178.167 261.786 178.398 261.524C178.636 261.266 178.82 260.961 178.945 260.618C179.078 260.266 179.148 259.891 179.148 259.493C179.148 259.086 179.078 258.711 178.945 258.368C178.82 258.024 178.636 257.727 178.398 257.477C178.167 257.219 177.898 257.016 177.585 256.868C177.281 256.711 176.953 256.633 176.601 256.633H171.617V262.336Z" fill="#7B1914"/>
<path d="M205.834 264.774H202.974L210.365 247.008H213.24L220.63 264.774H217.802L215.474 259.211H208.13L205.834 264.774ZM209.13 256.805H214.474L211.818 250.383L209.13 256.805Z" fill="#7B1914"/>
<path d="M257.156 264.774H253.875L248.281 257.102H245.172V264.774H242.547V247.008H249.766C250.461 247.008 251.125 247.145 251.75 247.415C252.383 247.676 252.93 248.036 253.391 248.493C253.848 248.942 254.207 249.473 254.469 250.086C254.739 250.692 254.875 251.344 254.875 252.04C254.875 252.625 254.781 253.176 254.594 253.696C254.414 254.219 254.16 254.688 253.828 255.102C253.504 255.52 253.117 255.883 252.672 256.196C252.223 256.5 251.727 256.727 251.188 256.883L257.156 264.774ZM249.766 254.649C250.117 254.649 250.453 254.583 250.766 254.446C251.086 254.301 251.36 254.114 251.578 253.883C251.805 253.645 251.989 253.364 252.125 253.04C252.258 252.708 252.328 252.36 252.328 251.993C252.328 251.629 252.258 251.29 252.125 250.977C251.989 250.657 251.805 250.375 251.578 250.133C251.36 249.883 251.086 249.692 250.766 249.555C250.453 249.411 250.117 249.336 249.766 249.336H245.172V254.68L249.766 254.649Z" fill="#7B1914"/>
<path d="M291.575 259.805C291.575 260.493 291.443 261.141 291.185 261.743C290.923 262.348 290.568 262.875 290.122 263.321C289.673 263.77 289.142 264.125 288.528 264.383C287.923 264.645 287.278 264.774 286.591 264.774H278.997V247.008H285.935C286.536 247.008 287.107 247.129 287.638 247.368C288.177 247.598 288.646 247.915 289.044 248.321C289.45 248.719 289.767 249.188 289.997 249.727C290.224 250.27 290.341 250.848 290.341 251.461C290.341 252.235 290.216 252.93 289.966 253.555C289.716 254.18 289.31 254.711 288.747 255.149C289.693 255.504 290.403 256.102 290.872 256.946C291.341 257.79 291.575 258.743 291.575 259.805ZM281.607 254.196C282.271 254.219 282.888 254.227 283.45 254.227H285.966C286.599 254.227 287.13 253.989 287.56 253.508C287.997 253.032 288.216 252.458 288.216 251.79C288.216 251.102 287.997 250.532 287.56 250.071C287.13 249.602 286.599 249.368 285.966 249.368H281.607V254.196ZM281.607 262.336C281.72 262.36 281.974 262.368 282.372 262.368H286.591C286.943 262.368 287.271 262.297 287.575 262.149C287.888 261.993 288.157 261.786 288.388 261.524C288.626 261.266 288.81 260.961 288.935 260.618C289.068 260.266 289.138 259.891 289.138 259.493C289.138 259.086 289.068 258.711 288.935 258.368C288.81 258.024 288.626 257.727 288.388 257.477C288.157 257.219 287.888 257.016 287.575 256.868C287.271 256.711 286.943 256.633 286.591 256.633H281.607V262.336Z" fill="#7B1914"/>
<path d="M324.934 247.008V249.368H316.7V254.196H324.043V256.633H316.7V262.336H324.934V264.774H314.09V247.008H324.934Z" fill="#7B1914"/>
<path d="M349.64 264.774H346.78L354.171 247.008H357.046L364.436 264.774H361.608L359.28 259.211H351.936L349.64 264.774ZM352.936 256.805H358.28L355.624 250.383L352.936 256.805Z" fill="#7B1914"/>
<path d="M400.962 264.774H397.681L392.087 257.102H388.978V264.774H386.353V247.008H393.572C394.267 247.008 394.931 247.145 395.556 247.415C396.189 247.676 396.736 248.036 397.197 248.493C397.654 248.942 398.013 249.473 398.275 250.086C398.544 250.692 398.681 251.344 398.681 252.04C398.681 252.625 398.587 253.176 398.4 253.696C398.22 254.219 397.966 254.688 397.634 255.102C397.31 255.52 396.923 255.883 396.478 256.196C396.029 256.5 395.533 256.727 394.994 256.883L400.962 264.774ZM393.572 254.649C393.923 254.649 394.259 254.583 394.572 254.446C394.892 254.301 395.166 254.114 395.384 253.883C395.611 253.645 395.794 253.364 395.931 253.04C396.064 252.708 396.134 252.36 396.134 251.993C396.134 251.629 396.064 251.29 395.931 250.977C395.794 250.657 395.611 250.375 395.384 250.133C395.166 249.883 394.892 249.692 394.572 249.555C394.259 249.411 393.923 249.336 393.572 249.336H388.978V254.68L393.572 254.649Z" fill="#7B1914"/>
<path d="M427.615 249.165V262.618H428.912V264.774H423.677V262.618H425.005V249.165H423.677V247.008H428.912V249.165H427.615Z" fill="#7B1914"/>
<path d="M454.443 264.774H451.583L458.974 247.008H461.849L469.24 264.774H466.411L464.083 259.211H456.74L454.443 264.774ZM457.74 256.805H463.083L460.427 250.383L457.74 256.805Z" fill="#7B1914"/>
<path d="M181.59 259.809C181.59 260.496 181.461 261.141 181.199 261.742C180.941 262.344 180.586 262.871 180.133 263.324C179.68 263.773 179.148 264.125 178.535 264.387C177.93 264.644 177.281 264.773 176.598 264.773H169V247H175.949C176.547 247 177.113 247.117 177.648 247.355C178.187 247.59 178.656 247.906 179.059 248.305C179.457 248.703 179.773 249.176 180.004 249.719C180.242 250.262 180.359 250.844 180.359 251.461C180.359 252.23 180.234 252.926 179.98 253.555C179.73 254.184 179.324 254.715 178.758 255.148C179.707 255.496 180.418 256.094 180.887 256.941C181.355 257.785 181.59 258.742 181.59 259.809ZM171.609 254.191C172.277 254.211 172.895 254.223 173.465 254.223H175.973C176.609 254.223 177.144 253.984 177.574 253.508C178.012 253.027 178.23 252.457 178.23 251.785C178.23 251.102 178.012 250.527 177.574 250.062C177.144 249.59 176.609 249.355 175.973 249.355H171.609V254.191ZM171.609 262.344C171.727 262.359 171.988 262.367 172.387 262.367H176.598C176.949 262.367 177.277 262.293 177.59 262.141C177.898 261.992 178.168 261.785 178.402 261.531C178.641 261.269 178.824 260.961 178.953 260.613C179.086 260.262 179.156 259.887 179.156 259.484C179.156 259.082 179.086 258.711 178.953 258.371C178.824 258.027 178.641 257.73 178.402 257.473C178.168 257.211 177.898 257.004 177.59 256.855C177.277 256.703 176.949 256.629 176.598 256.629H171.609V262.344ZM205.828 264.773H202.969L210.363 247H213.246L220.644 264.773H217.808L215.476 259.211H208.133L205.828 264.773ZM209.137 256.801H214.476L211.82 250.387L209.137 256.801ZM257.164 264.773H253.878L248.293 257.105H245.183V264.773H242.55V247H249.765C250.468 247 251.132 247.137 251.753 247.406C252.382 247.672 252.929 248.027 253.39 248.48C253.851 248.93 254.214 249.461 254.48 250.074C254.746 250.68 254.882 251.336 254.882 252.039C254.882 252.625 254.789 253.18 254.605 253.695C254.421 254.215 254.168 254.68 253.843 255.098C253.515 255.516 253.125 255.875 252.671 256.187C252.222 256.496 251.734 256.727 251.199 256.879L257.164 264.773ZM249.765 254.644C250.117 254.644 250.453 254.574 250.769 254.437C251.089 254.293 251.359 254.105 251.586 253.875C251.808 253.637 251.988 253.355 252.121 253.027C252.257 252.703 252.324 252.355 252.324 251.988C252.324 251.621 252.257 251.277 252.121 250.961C251.988 250.641 251.808 250.363 251.586 250.121C251.359 249.883 251.089 249.691 250.769 249.547C250.453 249.402 250.117 249.332 249.765 249.332H245.183V254.668L249.765 254.644ZM291.581 259.809C291.581 260.496 291.449 261.141 291.187 261.742C290.933 262.344 290.578 262.871 290.124 263.324C289.671 263.773 289.14 264.125 288.527 264.387C287.917 264.644 287.273 264.773 286.585 264.773H278.992V247H285.937C286.538 247 287.105 247.117 287.64 247.355C288.179 247.59 288.648 247.906 289.046 248.305C289.445 248.703 289.761 249.176 289.995 249.719C290.234 250.262 290.351 250.844 290.351 251.461C290.351 252.23 290.222 252.926 289.972 253.555C289.722 254.184 289.316 254.715 288.745 255.148C289.699 255.496 290.406 256.094 290.878 256.941C291.347 257.785 291.581 258.742 291.581 259.809ZM281.597 254.191C282.269 254.211 282.886 254.223 283.453 254.223H285.96C286.597 254.223 287.132 253.984 287.566 253.508C288.003 253.027 288.222 252.457 288.222 251.785C288.222 251.102 288.003 250.527 287.566 250.062C287.132 249.59 286.597 249.355 285.96 249.355H281.597V254.191ZM281.597 262.344C281.718 262.359 281.976 262.367 282.374 262.367H286.585C286.937 262.367 287.269 262.293 287.578 262.141C287.886 261.992 288.16 261.785 288.39 261.531C288.628 261.269 288.812 260.961 288.941 260.613C289.078 260.262 289.144 259.887 289.144 259.484C289.144 259.082 289.078 258.711 288.941 258.371C288.812 258.027 288.628 257.73 288.39 257.473C288.16 257.211 287.886 257.004 287.578 256.855C287.269 256.703 286.937 256.629 286.585 256.629H281.597V262.344ZM324.941 247V249.355H316.691V254.191H324.034V256.629H316.691V262.344H324.941V264.773H314.085V247H324.941ZM349.632 264.773H346.773L354.167 247H357.05L364.448 264.773H361.616L359.284 259.211H351.94L349.632 264.773ZM352.944 256.801H358.28L355.624 250.387L352.944 256.801ZM400.971 264.773H397.682L392.097 257.105H388.987V264.773H386.354V247H393.569C394.272 247 394.936 247.137 395.561 247.406C396.186 247.672 396.733 248.027 397.194 248.48C397.655 248.93 398.018 249.461 398.284 250.074C398.554 250.68 398.686 251.336 398.686 252.039C398.686 252.625 398.596 253.18 398.413 253.695C398.229 254.215 397.971 254.68 397.647 255.098C397.319 255.516 396.932 255.875 396.479 256.187C396.03 256.496 395.538 256.727 395.003 256.879L400.971 264.773ZM393.569 254.644C393.921 254.644 394.257 254.574 394.573 254.437C394.893 254.293 395.163 254.105 395.389 253.875C395.612 253.637 395.792 253.355 395.929 253.027C396.061 252.703 396.128 252.355 396.128 251.988C396.128 251.621 396.061 251.277 395.929 250.961C395.792 250.641 395.612 250.363 395.389 250.121C395.163 249.883 394.893 249.691 394.573 249.547C394.257 249.402 393.921 249.332 393.569 249.332H388.987V254.668L393.569 254.644ZM427.612 249.156V262.617H428.917V264.773H423.678V262.617H425.006V249.156H423.678V247H428.917V249.156H427.612ZM454.436 264.773H451.577L458.971 247H461.85L469.252 264.773H466.416L464.084 259.211H456.741L454.436 264.773ZM457.745 256.801H463.081L460.424 250.387L457.745 256.801Z" stroke="#191300" stroke-width="0.235455"/>
<path d="M288.906 298.087C288.383 298.087 287.938 297.907 287.562 297.54C287.188 297.176 287 296.754 287 296.274C287 295.774 287.188 295.337 287.562 294.962C287.938 294.587 288.383 294.399 288.906 294.399C289.406 294.399 289.844 294.587 290.219 294.962C290.594 295.337 290.781 295.774 290.781 296.274C290.781 296.754 290.594 297.176 290.219 297.54C289.844 297.907 289.406 298.087 288.906 298.087Z" fill="#191300"/>
<path d="M348.796 298.087C348.273 298.087 347.828 297.907 347.453 297.54C347.078 297.176 346.89 296.754 346.89 296.274C346.89 295.774 347.078 295.337 347.453 294.962C347.828 294.587 348.273 294.399 348.796 294.399C349.296 294.399 349.734 294.587 350.109 294.962C350.484 295.337 350.671 295.774 350.671 296.274C350.671 296.754 350.484 297.176 350.109 297.54C349.734 297.907 349.296 298.087 348.796 298.087Z" fill="#191300"/>
<path d="M300.933 286.531H298.604V284.219H303.511V301.594H300.933V286.531Z" fill="#191300"/>
<path d="M308.538 294.906C307.745 294.336 307.124 293.609 306.678 292.734C306.229 291.859 306.007 290.93 306.007 289.938C306.007 289.105 306.163 288.328 306.475 287.609C306.796 286.891 307.229 286.266 307.772 285.734C308.311 285.203 308.944 284.781 309.663 284.469C310.389 284.156 311.171 284 312.007 284C312.827 284 313.6 284.156 314.319 284.469C315.046 284.781 315.682 285.203 316.225 285.734C316.764 286.266 317.194 286.891 317.507 287.609C317.827 288.328 317.991 289.105 317.991 289.938C317.991 290.512 317.897 291.059 317.71 291.578C317.53 292.102 317.311 292.621 317.053 293.141C316.991 293.277 316.874 293.5 316.71 293.812C316.553 294.117 316.358 294.477 316.132 294.891C315.901 295.309 315.651 295.766 315.382 296.266C315.108 296.766 314.835 297.262 314.553 297.75C313.905 298.906 313.198 300.188 312.428 301.594H309.757L313.069 295.641C312.214 295.852 311.389 295.887 310.6 295.75C309.807 295.617 309.12 295.336 308.538 294.906ZM312.007 286.359C311.514 286.359 311.053 286.453 310.616 286.641C310.178 286.828 309.792 287.086 309.46 287.406C309.135 287.719 308.882 288.102 308.694 288.547C308.507 288.984 308.413 289.449 308.413 289.938C308.413 290.555 308.546 291.125 308.819 291.656C309.089 292.188 309.46 292.617 309.928 292.938C310.218 293.156 310.561 293.328 310.96 293.453C311.366 293.57 311.78 293.621 312.21 293.609C312.635 293.59 313.057 293.5 313.475 293.344C313.901 293.18 314.288 292.906 314.632 292.531L314.725 292.375C314.944 291.961 315.139 291.523 315.319 291.062C315.495 290.605 315.585 290.23 315.585 289.938C315.585 289.449 315.491 288.984 315.303 288.547C315.116 288.102 314.854 287.719 314.522 287.406C314.198 287.086 313.819 286.828 313.382 286.641C312.952 286.453 312.495 286.359 312.007 286.359Z" fill="#191300"/>
<path d="M322.155 294.906C321.362 294.336 320.741 293.609 320.295 292.734C319.846 291.859 319.624 290.93 319.624 289.938C319.624 289.105 319.78 288.328 320.092 287.609C320.413 286.891 320.846 286.266 321.389 285.734C321.928 285.203 322.561 284.781 323.28 284.469C324.006 284.156 324.788 284 325.624 284C326.444 284 327.217 284.156 327.936 284.469C328.663 284.781 329.299 285.203 329.842 285.734C330.381 286.266 330.811 286.891 331.124 287.609C331.444 288.328 331.608 289.105 331.608 289.938C331.608 290.512 331.514 291.059 331.327 291.578C331.147 292.102 330.928 292.621 330.67 293.141C330.608 293.277 330.491 293.5 330.327 293.812C330.17 294.117 329.975 294.477 329.749 294.891C329.518 295.309 329.268 295.766 328.999 296.266C328.725 296.766 328.452 297.262 328.17 297.75C327.522 298.906 326.815 300.188 326.045 301.594H323.374L326.686 295.641C325.831 295.852 325.006 295.887 324.217 295.75C323.424 295.617 322.737 295.336 322.155 294.906ZM325.624 286.359C325.131 286.359 324.67 286.453 324.233 286.641C323.795 286.828 323.409 287.086 323.077 287.406C322.753 287.719 322.499 288.102 322.311 288.547C322.124 288.984 322.03 289.449 322.03 289.938C322.03 290.555 322.163 291.125 322.436 291.656C322.706 292.188 323.077 292.617 323.545 292.938C323.835 293.156 324.178 293.328 324.577 293.453C324.983 293.57 325.397 293.621 325.827 293.609C326.253 293.59 326.674 293.5 327.092 293.344C327.518 293.18 327.905 292.906 328.249 292.531L328.342 292.375C328.561 291.961 328.756 291.523 328.936 291.062C329.112 290.605 329.202 290.23 329.202 289.938C329.202 289.449 329.108 288.984 328.92 288.547C328.733 288.102 328.471 287.719 328.139 287.406C327.815 287.086 327.436 286.828 326.999 286.641C326.569 286.453 326.112 286.359 325.624 286.359Z" fill="#191300"/>
<path d="M335.491 286.531H333.162V284.219H338.069V301.594H335.491V286.531Z" fill="#191300"/>
</svg>
