<svg xmlns="http://www.w3.org/2000/svg" width="637.5" viewBox="0 0 637.5 375" height="375" version="1.0"><defs><clipPath id="a"><path d="M 157.242188 23.121094 L 496.992188 23.121094 L 496.992188 362.871094 L 157.242188 362.871094 Z M 157.242188 23.121094"/></clipPath></defs><path fill="#C7C1AF" d="M 327.132812 38.585938 L 481.570312 193.027344 L 327.128906 347.464844 L 172.691406 193.023438 Z M 327.132812 38.585938"/><g clip-path="url(#a)"><path fill="#C7C1AF" d="M 327.117188 362.871094 L 157.242188 192.996094 L 327.117188 23.121094 L 496.992188 192.996094 Z M 159.40625 192.996094 L 327.117188 360.707031 L 494.828125 192.996094 L 327.117188 25.285156 Z M 159.40625 192.996094"/></g><g fill="#7B1914"><g><g><path d="M 48.570312 -83.023438 C 47.324219 -83.023438 46.597656 -82.402344 46.285156 -81.15625 L 34.765625 -29.472656 L 23.246094 -81.15625 C 22.9375 -82.402344 22.210938 -83.023438 20.964844 -83.023438 L 7.265625 -83.023438 C 5.914062 -83.023438 5.1875 -82.296875 5.1875 -80.949219 L 5.1875 -2.074219 C 5.1875 -0.726562 5.914062 0 7.265625 0 L 16.8125 0 C 18.160156 0 18.886719 -0.726562 18.886719 -2.074219 L 18.886719 -48.777344 L 19.613281 -48.777344 L 29.890625 -1.867188 C 30.199219 -0.621094 30.925781 0 32.171875 0 L 37.257812 0 C 38.503906 0 39.230469 -0.621094 39.539062 -1.867188 L 49.816406 -48.777344 L 50.542969 -48.777344 L 50.542969 -2.074219 C 50.542969 -0.726562 51.269531 0 52.617188 0 L 62.269531 0 C 63.617188 0 64.34375 -0.726562 64.34375 -2.074219 L 64.34375 -80.949219 C 64.34375 -82.296875 63.617188 -83.023438 62.269531 -83.023438 Z M 48.570312 -83.023438" transform="translate(46.649 220.031)"/></g></g></g><g fill="#7B1914"><g><g><path d="M 5.1875 -14.945312 C 5.1875 -5.1875 10.378906 0 20.132812 0 L 31.757812 0 C 41.511719 0 46.703125 -5.1875 46.703125 -14.945312 L 46.703125 -68.082031 C 46.703125 -77.835938 41.511719 -83.023438 31.757812 -83.023438 L 20.132812 -83.023438 C 10.378906 -83.023438 5.1875 -77.835938 5.1875 -68.082031 Z M 23.144531 -13.386719 C 20.445312 -13.386719 18.992188 -14.738281 18.992188 -17.539062 L 18.992188 -65.484375 C 18.992188 -68.183594 20.445312 -69.636719 23.144531 -69.636719 L 29.164062 -69.636719 C 31.859375 -69.636719 33.3125 -68.183594 33.3125 -65.484375 L 33.3125 -17.539062 C 33.3125 -14.738281 31.859375 -13.386719 29.164062 -13.386719 Z M 23.144531 -13.386719" transform="translate(116.18 220.031)"/></g></g></g><g fill="#7B1914"><g><g><path d="M 37.050781 -83.023438 C 35.90625 -83.023438 35.390625 -82.402344 35.390625 -81.363281 L 35.390625 -37.570312 L 34.765625 -37.570312 L 18.992188 -81.675781 C 18.679688 -82.609375 18.058594 -83.023438 17.125 -83.023438 L 6.847656 -83.023438 C 5.8125 -83.023438 5.1875 -82.402344 5.1875 -81.363281 L 5.1875 -1.660156 C 5.1875 -0.621094 5.8125 0 6.847656 0 L 17.644531 0 C 18.785156 0 19.304688 -0.621094 19.304688 -1.660156 L 19.304688 -45.664062 L 19.820312 -45.664062 L 35.699219 -1.347656 C 36.011719 -0.414062 36.632812 0 37.570312 0 L 47.84375 0 C 48.878906 0 49.503906 -0.621094 49.503906 -1.660156 L 49.503906 -81.363281 C 49.503906 -82.402344 48.878906 -83.023438 47.84375 -83.023438 Z M 37.050781 -83.023438" transform="translate(168.068 220.031)"/></g></g></g><g fill="#7B1914"><g><g><path d="M 4.773438 -83.023438 C 3.734375 -83.023438 3.113281 -82.402344 3.113281 -81.363281 L 3.113281 -70.984375 C 3.113281 -69.949219 3.734375 -69.324219 4.773438 -69.324219 L 16.8125 -69.324219 L 16.8125 -1.660156 C 16.8125 -0.519531 17.433594 0 18.472656 0 L 29.265625 0 C 30.40625 0 30.925781 -0.519531 30.925781 -1.660156 L 30.925781 -69.324219 L 42.964844 -69.324219 C 44.105469 -69.324219 44.625 -69.949219 44.625 -70.984375 L 44.625 -81.363281 C 44.625 -82.402344 44.105469 -83.023438 42.964844 -83.023438 Z M 4.773438 -83.023438" transform="translate(222.76 220.031)"/></g></g></g><g fill="#7B1914"><g><g><path d="M 46.597656 -81.363281 C 46.597656 -82.402344 46.183594 -83.023438 44.9375 -83.023438 L 6.746094 -83.023438 C 5.8125 -83.023438 5.1875 -82.402344 5.1875 -81.363281 L 5.1875 -1.660156 C 5.1875 -0.621094 5.8125 0 6.746094 0 L 44.9375 0 C 46.183594 0 46.597656 -0.621094 46.597656 -1.660156 L 46.597656 -12.039062 C 46.597656 -13.179688 46.183594 -13.699219 44.9375 -13.699219 L 18.992188 -13.699219 L 18.992188 -34.664062 L 38.8125 -34.664062 C 39.851562 -34.664062 40.472656 -35.285156 40.472656 -36.425781 L 40.472656 -46.703125 C 40.472656 -47.84375 39.851562 -48.464844 38.8125 -48.464844 L 18.992188 -48.464844 L 18.992188 -69.222656 L 44.9375 -69.222656 C 46.183594 -69.222656 46.597656 -69.949219 46.597656 -70.984375 Z M 46.597656 -81.363281" transform="translate(270.497 220.031)"/></g></g></g><g fill="#7B1914"><g><g><path d="M 46.804688 -68.082031 C 46.804688 -77.835938 41.511719 -83.023438 31.859375 -83.023438 L 20.238281 -83.023438 C 10.480469 -83.023438 5.1875 -77.835938 5.1875 -68.082031 L 5.1875 -14.945312 C 5.1875 -5.1875 10.480469 0 20.238281 0 L 31.859375 0 C 41.511719 0 46.804688 -5.1875 46.804688 -14.945312 L 46.804688 -26.152344 C 46.804688 -27.191406 46.183594 -27.8125 45.144531 -27.8125 L 34.765625 -27.8125 C 33.625 -27.8125 33.105469 -27.191406 33.105469 -26.152344 L 33.105469 -17.851562 C 33.105469 -15.046875 31.652344 -13.699219 28.953125 -13.699219 L 23.558594 -13.699219 C 20.859375 -13.699219 19.40625 -15.046875 19.40625 -17.851562 L 19.40625 -65.175781 C 19.40625 -67.871094 20.757812 -69.324219 23.558594 -69.324219 L 28.953125 -69.324219 C 31.652344 -69.324219 33.105469 -67.871094 33.105469 -65.175781 L 33.105469 -56.871094 C 33.105469 -55.835938 33.625 -55.210938 34.765625 -55.210938 L 45.144531 -55.210938 C 46.183594 -55.210938 46.804688 -55.835938 46.804688 -56.871094 Z M 46.804688 -68.082031" transform="translate(322.282 220.031)"/></g></g></g><g fill="#7B1914"><g><g><path d="M 55.210938 0 C 56.457031 0 56.871094 -0.621094 56.664062 -1.765625 L 39.4375 -81.570312 C 39.230469 -82.609375 38.605469 -83.023438 37.671875 -83.023438 L 23.246094 -83.023438 C 22.3125 -83.023438 21.691406 -82.609375 21.484375 -81.570312 L 4.253906 -1.765625 C 3.945312 -0.621094 4.460938 0 5.605469 0 L 16.707031 0 C 17.644531 0 18.160156 -0.519531 18.371094 -1.453125 L 21.171875 -16.605469 L 39.644531 -16.605469 L 42.550781 -1.453125 C 42.757812 -0.519531 43.277344 0 44.210938 0 Z M 37.050781 -28.644531 L 23.765625 -28.644531 L 30.40625 -64.863281 Z M 37.050781 -28.644531" transform="translate(374.274 220.031)"/></g></g></g><g fill="#7B1914"><g><g><path d="M 47.84375 -68.082031 C 47.84375 -77.835938 42.652344 -83.023438 32.898438 -83.023438 L 6.847656 -83.023438 C 5.8125 -83.023438 5.1875 -82.402344 5.1875 -81.363281 L 5.1875 -1.660156 C 5.1875 -0.621094 5.8125 0 6.847656 0 L 17.644531 0 C 18.679688 0 19.304688 -0.621094 19.304688 -1.660156 L 19.304688 -27.8125 L 26.464844 -27.8125 L 33.417969 -1.453125 C 33.625 -0.519531 34.144531 0 35.183594 0 L 45.976562 0 C 47.117188 0 47.738281 -0.621094 47.429688 -1.867188 L 40.265625 -29.058594 C 45.25 -31.238281 47.84375 -35.804688 47.84375 -42.757812 Z M 19.304688 -41.511719 L 19.304688 -69.324219 L 29.578125 -69.324219 C 32.277344 -69.324219 33.730469 -67.871094 33.730469 -65.175781 L 33.730469 -45.664062 C 33.730469 -42.964844 32.277344 -41.511719 29.578125 -41.511719 Z M 19.304688 -41.511719" transform="translate(435.088 220.031)"/></g></g></g><g fill="#7B1914"><g><g><path d="M 19.304688 -13.699219 L 44.003906 -13.699219 C 45.144531 -13.699219 45.664062 -13.078125 45.664062 -12.039062 L 45.664062 -1.660156 C 45.664062 -0.519531 45.144531 0 44.003906 0 L 6.847656 0 C 5.8125 0 5.1875 -0.519531 5.1875 -1.660156 L 5.1875 -81.363281 C 5.1875 -82.402344 5.8125 -83.023438 6.847656 -83.023438 L 17.644531 -83.023438 C 18.785156 -83.023438 19.304688 -82.402344 19.304688 -81.363281 Z M 19.304688 -13.699219" transform="translate(488.118 220.031)"/></g></g></g><g fill="#7B1914"><g><g><path d="M 5.1875 -14.945312 C 5.1875 -5.1875 10.378906 0 20.132812 0 L 31.757812 0 C 41.511719 0 46.703125 -5.1875 46.703125 -14.945312 L 46.703125 -68.082031 C 46.703125 -77.835938 41.511719 -83.023438 31.757812 -83.023438 L 20.132812 -83.023438 C 10.378906 -83.023438 5.1875 -77.835938 5.1875 -68.082031 Z M 23.144531 -13.386719 C 20.445312 -13.386719 18.992188 -14.738281 18.992188 -17.539062 L 18.992188 -65.484375 C 18.992188 -68.183594 20.445312 -69.636719 23.144531 -69.636719 L 29.164062 -69.636719 C 31.859375 -69.636719 33.3125 -68.183594 33.3125 -65.484375 L 33.3125 -17.539062 C 33.3125 -14.738281 31.859375 -13.386719 29.164062 -13.386719 Z M 23.144531 -13.386719" transform="translate(538.969 220.031)"/></g></g></g><path d="M 323.339844 96.179688 C 326.46875 94.78125 324.914062 87.277344 320.71875 84.449219 C 316.519531 81.621094 311.269531 82.355469 303.820312 88.21875 C 296.371094 94.085938 283.042969 107.175781 262.785156 107.699219 C 242.53125 108.222656 226.265625 88.535156 226.160156 69.890625 C 226.054688 51.246094 238.648438 44.648438 246.203125 44.859375 C 253.761719 45.066406 260.269531 50.515625 260.269531 57.320312 C 260.269531 64.128906 253.761719 63.921875 251.871094 60.671875 C 250.15625 57.726562 252.605469 56.167969 251.347656 55.332031 C 250.085938 54.492188 248.09375 55.539062 248.09375 58.472656 C 248.09375 61.40625 251.585938 65.113281 255.546875 65.59375 C 261.527344 66.328125 265.199219 59.519531 262.15625 52.1875 C 259.085938 44.789062 248.617188 37.632812 235.605469 45.378906 C 222.59375 53.132812 218.917969 71.566406 225.425781 88.21875 C 231.933594 104.875 245.679688 113.144531 261.839844 115.136719 C 278.003906 117.128906 292.695312 109.273438 300.988281 103.300781 C 309.277344 97.332031 312.007812 95.132812 316.832031 95.132812 C 321.660156 95.132812 320.296875 97.542969 323.339844 96.179688 Z M 323.339844 96.179688"/><path d="M 331.394531 96.179688 C 328.269531 94.78125 329.820312 87.277344 334.023438 84.449219 C 338.21875 81.621094 343.464844 82.355469 350.917969 88.21875 C 358.367188 94.085938 371.695312 107.175781 391.953125 107.699219 C 412.207031 108.222656 428.472656 88.535156 428.578125 69.890625 C 428.683594 51.246094 416.089844 44.648438 408.535156 44.859375 C 400.976562 45.066406 394.46875 50.515625 394.46875 57.320312 C 394.46875 64.128906 400.976562 63.921875 402.867188 60.671875 C 404.582031 57.726562 402.132812 56.167969 403.390625 55.332031 C 404.648438 54.492188 406.644531 55.539062 406.644531 58.472656 C 406.644531 61.40625 403.152344 65.113281 399.191406 65.59375 C 393.210938 66.328125 389.539062 59.519531 392.582031 52.1875 C 395.652344 44.789062 406.117188 37.632812 419.132812 45.378906 C 432.144531 53.132812 435.820312 71.566406 429.3125 88.21875 C 422.804688 104.875 409.058594 113.144531 392.894531 115.136719 C 376.734375 117.128906 362.039062 109.273438 353.75 103.300781 C 345.460938 97.332031 342.730469 95.132812 337.902344 95.132812 C 333.074219 95.132812 334.441406 97.542969 331.394531 96.179688 Z M 331.394531 96.179688"/><g fill="#7B1914"><g><g><path d="M 13.984375 -4.96875 C 13.984375 -4.28125 13.851562 -3.632812 13.59375 -3.03125 C 13.332031 -2.425781 12.976562 -1.898438 12.53125 -1.453125 C 12.082031 -1.003906 11.550781 -0.648438 10.9375 -0.390625 C 10.332031 -0.128906 9.6875 0 9 0 L 1.40625 0 L 1.40625 -17.765625 L 8.34375 -17.765625 C 8.945312 -17.765625 9.515625 -17.644531 10.046875 -17.40625 C 10.585938 -17.175781 11.054688 -16.859375 11.453125 -16.453125 C 11.859375 -16.054688 12.175781 -15.585938 12.40625 -15.046875 C 12.632812 -14.503906 12.75 -13.925781 12.75 -13.3125 C 12.75 -12.539062 12.625 -11.84375 12.375 -11.21875 C 12.125 -10.59375 11.71875 -10.0625 11.15625 -9.625 C 12.101562 -9.269531 12.8125 -8.671875 13.28125 -7.828125 C 13.75 -6.984375 13.984375 -6.03125 13.984375 -4.96875 Z M 4.015625 -10.578125 C 4.679688 -10.554688 5.296875 -10.546875 5.859375 -10.546875 L 8.375 -10.546875 C 9.007812 -10.546875 9.539062 -10.785156 9.96875 -11.265625 C 10.40625 -11.742188 10.625 -12.316406 10.625 -12.984375 C 10.625 -13.671875 10.40625 -14.242188 9.96875 -14.703125 C 9.539062 -15.171875 9.007812 -15.40625 8.375 -15.40625 L 4.015625 -15.40625 Z M 4.015625 -2.4375 C 4.128906 -2.414062 4.382812 -2.40625 4.78125 -2.40625 L 9 -2.40625 C 9.351562 -2.40625 9.679688 -2.476562 9.984375 -2.625 C 10.296875 -2.78125 10.566406 -2.988281 10.796875 -3.25 C 11.035156 -3.507812 11.21875 -3.8125 11.34375 -4.15625 C 11.476562 -4.507812 11.546875 -4.882812 11.546875 -5.28125 C 11.546875 -5.6875 11.476562 -6.0625 11.34375 -6.40625 C 11.21875 -6.75 11.035156 -7.046875 10.796875 -7.296875 C 10.566406 -7.554688 10.296875 -7.757812 9.984375 -7.90625 C 9.679688 -8.0625 9.351562 -8.140625 9 -8.140625 L 4.015625 -8.140625 Z M 4.015625 -2.4375" transform="translate(176.23 255.25)"/></g></g></g><g fill="#7B1914"><g><g><path d="M 3.140625 0 L 0.28125 0 L 7.671875 -17.765625 L 10.546875 -17.765625 L 17.9375 0 L 15.109375 0 L 12.78125 -5.5625 L 5.4375 -5.5625 Z M 6.4375 -7.96875 L 11.78125 -7.96875 L 9.125 -14.390625 Z M 6.4375 -7.96875" transform="translate(211.322 255.25)"/></g></g></g><g fill="#7B1914"><g><g><path d="M 16.0625 0 L 12.78125 0 L 7.1875 -7.671875 L 4.078125 -7.671875 L 4.078125 0 L 1.453125 0 L 1.453125 -17.765625 L 8.671875 -17.765625 C 9.367188 -17.765625 10.03125 -17.628906 10.65625 -17.359375 C 11.289062 -17.097656 11.835938 -16.738281 12.296875 -16.28125 C 12.753906 -15.832031 13.113281 -15.300781 13.375 -14.6875 C 13.644531 -14.082031 13.78125 -13.429688 13.78125 -12.734375 C 13.78125 -12.148438 13.6875 -11.597656 13.5 -11.078125 C 13.320312 -10.554688 13.066406 -10.085938 12.734375 -9.671875 C 12.410156 -9.253906 12.023438 -8.890625 11.578125 -8.578125 C 11.128906 -8.273438 10.632812 -8.046875 10.09375 -7.890625 Z M 8.671875 -10.125 C 9.023438 -10.125 9.359375 -10.191406 9.671875 -10.328125 C 9.992188 -10.472656 10.265625 -10.660156 10.484375 -10.890625 C 10.710938 -11.128906 10.894531 -11.410156 11.03125 -11.734375 C 11.164062 -12.066406 11.234375 -12.414062 11.234375 -12.78125 C 11.234375 -13.144531 11.164062 -13.484375 11.03125 -13.796875 C 10.894531 -14.117188 10.710938 -14.398438 10.484375 -14.640625 C 10.265625 -14.890625 9.992188 -15.082031 9.671875 -15.21875 C 9.359375 -15.363281 9.023438 -15.4375 8.671875 -15.4375 L 4.078125 -15.4375 L 4.078125 -10.09375 Z M 8.671875 -10.125" transform="translate(249.723 255.25)"/></g></g></g><g fill="#7B1914"><g><g><path d="M 13.984375 -4.96875 C 13.984375 -4.28125 13.851562 -3.632812 13.59375 -3.03125 C 13.332031 -2.425781 12.976562 -1.898438 12.53125 -1.453125 C 12.082031 -1.003906 11.550781 -0.648438 10.9375 -0.390625 C 10.332031 -0.128906 9.6875 0 9 0 L 1.40625 0 L 1.40625 -17.765625 L 8.34375 -17.765625 C 8.945312 -17.765625 9.515625 -17.644531 10.046875 -17.40625 C 10.585938 -17.175781 11.054688 -16.859375 11.453125 -16.453125 C 11.859375 -16.054688 12.175781 -15.585938 12.40625 -15.046875 C 12.632812 -14.503906 12.75 -13.925781 12.75 -13.3125 C 12.75 -12.539062 12.625 -11.84375 12.375 -11.21875 C 12.125 -10.59375 11.71875 -10.0625 11.15625 -9.625 C 12.101562 -9.269531 12.8125 -8.671875 13.28125 -7.828125 C 13.75 -6.984375 13.984375 -6.03125 13.984375 -4.96875 Z M 4.015625 -10.578125 C 4.679688 -10.554688 5.296875 -10.546875 5.859375 -10.546875 L 8.375 -10.546875 C 9.007812 -10.546875 9.539062 -10.785156 9.96875 -11.265625 C 10.40625 -11.742188 10.625 -12.316406 10.625 -12.984375 C 10.625 -13.671875 10.40625 -14.242188 9.96875 -14.703125 C 9.539062 -15.171875 9.007812 -15.40625 8.375 -15.40625 L 4.015625 -15.40625 Z M 4.015625 -2.4375 C 4.128906 -2.414062 4.382812 -2.40625 4.78125 -2.40625 L 9 -2.40625 C 9.351562 -2.40625 9.679688 -2.476562 9.984375 -2.625 C 10.296875 -2.78125 10.566406 -2.988281 10.796875 -3.25 C 11.035156 -3.507812 11.21875 -3.8125 11.34375 -4.15625 C 11.476562 -4.507812 11.546875 -4.882812 11.546875 -5.28125 C 11.546875 -5.6875 11.476562 -6.0625 11.34375 -6.40625 C 11.21875 -6.75 11.035156 -7.046875 10.796875 -7.296875 C 10.566406 -7.554688 10.296875 -7.757812 9.984375 -7.90625 C 9.679688 -8.0625 9.351562 -8.140625 9 -8.140625 L 4.015625 -8.140625 Z M 4.015625 -2.4375" transform="translate(286.22 255.25)"/></g></g></g><g fill="#7B1914"><g><g><path d="M 12.25 -17.765625 L 12.25 -15.40625 L 4.015625 -15.40625 L 4.015625 -10.578125 L 11.359375 -10.578125 L 11.359375 -8.140625 L 4.015625 -8.140625 L 4.015625 -2.4375 L 12.25 -2.4375 L 12.25 0 L 1.40625 0 L 1.40625 -17.765625 Z M 12.25 -17.765625" transform="translate(321.313 255.25)"/></g></g></g><g fill="#7B1914"><g><g><path d="M 3.140625 0 L 0.28125 0 L 7.671875 -17.765625 L 10.546875 -17.765625 L 17.9375 0 L 15.109375 0 L 12.78125 -5.5625 L 5.4375 -5.5625 Z M 6.4375 -7.96875 L 11.78125 -7.96875 L 9.125 -14.390625 Z M 6.4375 -7.96875" transform="translate(355.128 255.25)"/></g></g></g><g fill="#7B1914"><g><g><path d="M 16.0625 0 L 12.78125 0 L 7.1875 -7.671875 L 4.078125 -7.671875 L 4.078125 0 L 1.453125 0 L 1.453125 -17.765625 L 8.671875 -17.765625 C 9.367188 -17.765625 10.03125 -17.628906 10.65625 -17.359375 C 11.289062 -17.097656 11.835938 -16.738281 12.296875 -16.28125 C 12.753906 -15.832031 13.113281 -15.300781 13.375 -14.6875 C 13.644531 -14.082031 13.78125 -13.429688 13.78125 -12.734375 C 13.78125 -12.148438 13.6875 -11.597656 13.5 -11.078125 C 13.320312 -10.554688 13.066406 -10.085938 12.734375 -9.671875 C 12.410156 -9.253906 12.023438 -8.890625 11.578125 -8.578125 C 11.128906 -8.273438 10.632812 -8.046875 10.09375 -7.890625 Z M 8.671875 -10.125 C 9.023438 -10.125 9.359375 -10.191406 9.671875 -10.328125 C 9.992188 -10.472656 10.265625 -10.660156 10.484375 -10.890625 C 10.710938 -11.128906 10.894531 -11.410156 11.03125 -11.734375 C 11.164062 -12.066406 11.234375 -12.414062 11.234375 -12.78125 C 11.234375 -13.144531 11.164062 -13.484375 11.03125 -13.796875 C 10.894531 -14.117188 10.710938 -14.398438 10.484375 -14.640625 C 10.265625 -14.890625 9.992188 -15.082031 9.671875 -15.21875 C 9.359375 -15.363281 9.023438 -15.4375 8.671875 -15.4375 L 4.078125 -15.4375 L 4.078125 -10.09375 Z M 8.671875 -10.125" transform="translate(393.529 255.25)"/></g></g></g><g fill="#7B1914"><g><g><path d="M 6.21875 -15.609375 L 6.21875 -2.15625 L 7.515625 -2.15625 L 7.515625 0 L 2.28125 0 L 2.28125 -2.15625 L 3.609375 -2.15625 L 3.609375 -15.609375 L 2.28125 -15.609375 L 2.28125 -17.765625 L 7.515625 -17.765625 L 7.515625 -15.609375 Z M 6.21875 -15.609375" transform="translate(430.025 255.25)"/></g></g></g><g fill="#7B1914"><g><g><path d="M 3.140625 0 L 0.28125 0 L 7.671875 -17.765625 L 10.546875 -17.765625 L 17.9375 0 L 15.109375 0 L 12.78125 -5.5625 L 5.4375 -5.5625 Z M 6.4375 -7.96875 L 11.78125 -7.96875 L 9.125 -14.390625 Z M 6.4375 -7.96875" transform="translate(459.931 255.25)"/></g></g></g><path transform="matrix(.84091 0 0 .84091 176.19 230.863)" fill="none" d="M 16.682858 23.095957 C 16.682858 23.913519 16.529565 24.679984 16.218334 25.395351 C 15.911748 26.110719 15.489031 26.737826 14.950183 27.276674 C 14.411335 27.810877 13.779582 28.228949 13.050279 28.54018 C 12.330267 28.846766 11.559157 29.000059 10.74624 29.000059 L 1.711245 29.000059 L 1.711245 7.86421 L 9.97513 7.86421 C 10.685851 7.86421 11.359412 8.003568 11.99581 8.286927 C 12.636853 8.565642 13.194282 8.941906 13.672742 9.415721 C 14.146556 9.889536 14.522821 10.45161 14.79689 11.097298 C 15.08025 11.742987 15.219607 12.435128 15.219607 13.169076 C 15.219607 14.084189 15.070959 14.911042 14.769019 15.658925 C 14.471723 16.406809 13.988618 17.038562 13.315058 17.554184 C 14.443852 17.96761 15.289286 18.678332 15.846715 19.68635 C 16.404144 20.689722 16.682858 21.827806 16.682858 23.095957 Z M 4.814266 16.4161 C 5.608603 16.439326 6.342551 16.453262 7.020756 16.453262 L 10.003001 16.453262 C 10.760175 16.453262 11.396573 16.169902 11.90755 15.603183 C 12.427817 15.031818 12.687951 14.353613 12.687951 13.554631 C 12.687951 12.741714 12.427817 12.058863 11.90755 11.50608 C 11.396573 10.944005 10.760175 10.665291 10.003001 10.665291 L 4.814266 10.665291 Z M 4.814266 26.110719 C 4.953624 26.1293 5.264855 26.13859 5.738669 26.13859 L 10.74624 26.13859 C 11.164311 26.13859 11.554512 26.05033 11.926131 25.869166 C 12.293105 25.692647 12.613627 25.446449 12.892341 25.144508 C 13.175701 24.833277 13.394027 24.466303 13.54732 24.052877 C 13.705258 23.634805 13.788873 23.188862 13.788873 22.710402 C 13.788873 22.231942 13.705258 21.790644 13.54732 21.386508 C 13.394027 20.977727 13.175701 20.624689 12.892341 20.318103 C 12.613627 20.006871 12.293105 19.760674 11.926131 19.584154 C 11.554512 19.40299 11.164311 19.31473 10.74624 19.31473 L 4.814266 19.31473 Z M 45.506581 29.000059 L 42.106264 29.000059 L 50.899706 7.86421 L 54.327894 7.86421 L 63.125981 29.000059 L 59.753536 29.000059 L 56.980327 22.385235 L 48.247273 22.385235 Z M 49.4411 19.519121 L 55.791145 19.519121 L 52.632381 11.891635 Z M 106.554343 29.000059 L 102.647695 29.000059 L 96.005 19.88145 L 92.307388 19.88145 L 92.307388 29.000059 L 89.176495 29.000059 L 89.176495 7.86421 L 97.756256 7.86421 C 98.592399 7.86421 99.38209 8.026794 100.120684 8.347316 C 100.868568 8.663192 101.518901 9.085909 102.06704 9.624757 C 102.615178 10.15896 103.047186 10.790712 103.363062 11.520015 C 103.678939 12.240028 103.841522 13.020428 103.841522 13.856572 C 103.841522 14.553358 103.730036 15.212982 103.51171 15.826154 C 103.293384 16.443971 102.991443 16.996755 102.605888 17.493796 C 102.215688 17.990837 101.751164 18.418199 101.212316 18.789818 C 100.678113 19.156792 100.097458 19.430861 99.46106 19.612026 Z M 97.756256 16.954948 C 98.174328 16.954948 98.573818 16.871333 98.950083 16.70875 C 99.330993 16.536876 99.651514 16.313904 99.920938 16.039835 C 100.185717 15.756476 100.399398 15.422018 100.557337 15.031818 C 100.71992 14.646263 100.798889 14.232836 100.798889 13.796184 C 100.798889 13.359531 100.71992 12.95075 100.557337 12.574485 C 100.399398 12.193575 100.185717 11.863763 99.920938 11.575758 C 99.651514 11.292399 99.330993 11.064782 98.950083 10.892908 C 98.573818 10.721034 98.174328 10.63742 97.756256 10.63742 L 92.307388 10.63742 L 92.307388 16.982819 Z M 147.483565 23.095957 C 147.483565 23.913519 147.325627 24.679984 147.014396 25.395351 C 146.712455 26.110719 146.289738 26.737826 145.75089 27.276674 C 145.212042 27.810877 144.580289 28.228949 143.850986 28.54018 C 143.126329 28.846766 142.359864 29.000059 141.542301 29.000059 L 132.511952 29.000059 L 132.511952 7.86421 L 140.771191 7.86421 C 141.486558 7.86421 142.160118 8.003568 142.796516 8.286927 C 143.43756 8.565642 143.994989 8.941906 144.468803 9.415721 C 144.942618 9.889536 145.318882 10.45161 145.597597 11.097298 C 145.880957 11.742987 146.020314 12.435128 146.020314 13.169076 C 146.020314 14.084189 145.867021 14.911042 145.569726 15.658925 C 145.27243 16.406809 144.789325 17.038562 144.11112 17.554184 C 145.244559 17.96761 146.085347 18.678332 146.647422 19.68635 C 147.20485 20.689722 147.483565 21.827806 147.483565 23.095957 Z M 135.610328 16.4161 C 136.40931 16.439326 137.143258 16.453262 137.816818 16.453262 L 140.799063 16.453262 C 141.556237 16.453262 142.192635 16.169902 142.708257 15.603183 C 143.228524 15.031818 143.488657 14.353613 143.488657 13.554631 C 143.488657 12.741714 143.228524 12.058863 142.708257 11.50608 C 142.192635 10.944005 141.556237 10.665291 140.799063 10.665291 L 135.610328 10.665291 Z M 135.610328 26.110719 C 135.75433 26.1293 136.060916 26.13859 136.534731 26.13859 L 141.542301 26.13859 C 141.960373 26.13859 142.355218 26.05033 142.722193 25.869166 C 143.089167 25.692647 143.414334 25.446449 143.688403 25.144508 C 143.971762 24.833277 144.190089 24.466303 144.343382 24.052877 C 144.505965 23.634805 144.584934 23.188862 144.584934 22.710402 C 144.584934 22.231942 144.505965 21.790644 144.343382 21.386508 C 144.190089 20.977727 143.971762 20.624689 143.688403 20.318103 C 143.414334 20.006871 143.089167 19.760674 142.722193 19.584154 C 142.355218 19.40299 141.960373 19.31473 141.542301 19.31473 L 135.610328 19.31473 Z M 187.153926 7.86421 L 187.153926 10.665291 L 177.343177 10.665291 L 177.343177 16.4161 L 186.07623 16.4161 L 186.07623 19.31473 L 177.343177 19.31473 L 177.343177 26.110719 L 187.153926 26.110719 L 187.153926 29.000059 L 174.244801 29.000059 L 174.244801 7.86421 Z M 216.516497 29.000059 L 213.11618 29.000059 L 221.909622 7.86421 L 225.337811 7.86421 L 234.135898 29.000059 L 230.768098 29.000059 L 227.994889 22.385235 L 219.261835 22.385235 Z M 220.455662 19.519121 L 226.801062 19.519121 L 223.642297 11.891635 Z M 277.568905 29.000059 L 273.657611 29.000059 L 267.014916 19.88145 L 263.317304 19.88145 L 263.317304 29.000059 L 260.186411 29.000059 L 260.186411 7.86421 L 268.766172 7.86421 C 269.602316 7.86421 270.392007 8.026794 271.135245 8.347316 C 271.878484 8.663192 272.528818 9.085909 273.076956 9.624757 C 273.625095 10.15896 274.057102 10.790712 274.372979 11.520015 C 274.6935 12.240028 274.851438 13.020428 274.851438 13.856572 C 274.851438 14.553358 274.744598 15.212982 274.526272 15.826154 C 274.307945 16.443971 274.001359 16.996755 273.615804 17.493796 C 273.225604 17.990837 272.765725 18.418199 272.226877 18.789818 C 271.692674 19.156792 271.107374 19.430861 270.470976 19.612026 Z M 268.766172 16.954948 C 269.184244 16.954948 269.583735 16.871333 269.959999 16.70875 C 270.340909 16.536876 270.661431 16.313904 270.930855 16.039835 C 271.195633 15.756476 271.409315 15.422018 271.571898 15.031818 C 271.729836 14.646263 271.808805 14.232836 271.808805 13.796184 C 271.808805 13.359531 271.729836 12.95075 271.571898 12.574485 C 271.409315 12.193575 271.195633 11.863763 270.930855 11.575758 C 270.661431 11.292399 270.340909 11.064782 269.959999 10.892908 C 269.583735 10.721034 269.184244 10.63742 268.766172 10.63742 L 263.317304 10.63742 L 263.317304 16.982819 Z M 309.249451 10.428384 L 309.249451 26.435885 L 310.800962 26.435885 L 310.800962 29.000059 L 304.571693 29.000059 L 304.571693 26.435885 L 306.151075 26.435885 L 306.151075 10.428384 L 304.571693 10.428384 L 304.571693 7.86421 L 310.800962 7.86421 L 310.800962 10.428384 Z M 341.148323 29.000059 L 337.748007 29.000059 L 346.541449 7.86421 L 349.964992 7.86421 L 358.767724 29.000059 L 355.395279 29.000059 L 352.62207 22.385235 L 343.889016 22.385235 Z M 345.082843 19.519121 L 351.428243 19.519121 L 348.269479 11.891635 Z M 345.082843 19.519121" stroke="#191300" stroke-width=".28"/><g fill="#191300"><g><g><path d="M 3.546875 -0.03125 C 3.023438 -0.03125 2.578125 -0.210938 2.203125 -0.578125 C 1.828125 -0.941406 1.640625 -1.363281 1.640625 -1.84375 C 1.640625 -2.34375 1.828125 -2.78125 2.203125 -3.15625 C 2.578125 -3.53125 3.023438 -3.71875 3.546875 -3.71875 C 4.046875 -3.71875 4.484375 -3.53125 4.859375 -3.15625 C 5.234375 -2.78125 5.421875 -2.34375 5.421875 -1.84375 C 5.421875 -1.363281 5.234375 -0.941406 4.859375 -0.578125 C 4.484375 -0.210938 4.046875 -0.03125 3.546875 -0.03125 Z M 3.546875 -0.03125" transform="translate(293.77 294.67)"/></g></g></g><g fill="#191300"><g><g><path d="M 3.546875 -0.03125 C 3.023438 -0.03125 2.578125 -0.210938 2.203125 -0.578125 C 1.828125 -0.941406 1.640625 -1.363281 1.640625 -1.84375 C 1.640625 -2.34375 1.828125 -2.78125 2.203125 -3.15625 C 2.578125 -3.53125 3.023438 -3.71875 3.546875 -3.71875 C 4.046875 -3.71875 4.484375 -3.53125 4.859375 -3.15625 C 5.234375 -2.78125 5.421875 -2.34375 5.421875 -1.84375 C 5.421875 -1.363281 5.234375 -0.941406 4.859375 -0.578125 C 4.484375 -0.210938 4.046875 -0.03125 3.546875 -0.03125 Z M 3.546875 -0.03125" transform="translate(353.66 294.67)"/></g></g></g><g fill="#191300"><g><g><path d="M 3.03125 -15.0625 L 0.703125 -15.0625 L 0.703125 -17.375 L 5.609375 -17.375 L 5.609375 0 L 3.03125 0 Z M 3.03125 -15.0625" transform="translate(306.312 298.146)"/></g></g></g><g fill="#191300"><g><g><path d="M 3.3125 -6.6875 C 2.519531 -7.257812 1.898438 -7.984375 1.453125 -8.859375 C 1.003906 -9.734375 0.78125 -10.664062 0.78125 -11.65625 C 0.78125 -12.488281 0.9375 -13.265625 1.25 -13.984375 C 1.570312 -14.703125 2.003906 -15.328125 2.546875 -15.859375 C 3.085938 -16.390625 3.71875 -16.8125 4.4375 -17.125 C 5.164062 -17.4375 5.945312 -17.59375 6.78125 -17.59375 C 7.601562 -17.59375 8.375 -17.4375 9.09375 -17.125 C 9.820312 -16.8125 10.457031 -16.390625 11 -15.859375 C 11.539062 -15.328125 11.96875 -14.703125 12.28125 -13.984375 C 12.601562 -13.265625 12.765625 -12.488281 12.765625 -11.65625 C 12.765625 -11.082031 12.671875 -10.535156 12.484375 -10.015625 C 12.304688 -9.492188 12.085938 -8.972656 11.828125 -8.453125 C 11.765625 -8.316406 11.648438 -8.09375 11.484375 -7.78125 C 11.328125 -7.476562 11.132812 -7.117188 10.90625 -6.703125 C 10.675781 -6.285156 10.425781 -5.828125 10.15625 -5.328125 C 9.882812 -4.828125 9.609375 -4.332031 9.328125 -3.84375 C 8.679688 -2.6875 7.972656 -1.40625 7.203125 0 L 4.53125 0 L 7.84375 -5.953125 C 6.988281 -5.742188 6.164062 -5.707031 5.375 -5.84375 C 4.582031 -5.976562 3.894531 -6.257812 3.3125 -6.6875 Z M 6.78125 -15.234375 C 6.289062 -15.234375 5.828125 -15.140625 5.390625 -14.953125 C 4.953125 -14.765625 4.566406 -14.507812 4.234375 -14.1875 C 3.910156 -13.875 3.65625 -13.492188 3.46875 -13.046875 C 3.28125 -12.609375 3.1875 -12.144531 3.1875 -11.65625 C 3.1875 -11.039062 3.320312 -10.46875 3.59375 -9.9375 C 3.863281 -9.40625 4.234375 -8.976562 4.703125 -8.65625 C 4.992188 -8.4375 5.335938 -8.265625 5.734375 -8.140625 C 6.140625 -8.023438 6.554688 -7.972656 6.984375 -7.984375 C 7.410156 -8.003906 7.832031 -8.09375 8.25 -8.25 C 8.675781 -8.414062 9.0625 -8.6875 9.40625 -9.0625 L 9.5 -9.21875 C 9.71875 -9.632812 9.914062 -10.070312 10.09375 -10.53125 C 10.269531 -10.988281 10.359375 -11.363281 10.359375 -11.65625 C 10.359375 -12.144531 10.265625 -12.609375 10.078125 -13.046875 C 9.890625 -13.492188 9.628906 -13.875 9.296875 -14.1875 C 8.972656 -14.507812 8.59375 -14.765625 8.15625 -14.953125 C 7.726562 -15.140625 7.269531 -15.234375 6.78125 -15.234375 Z M 6.78125 -15.234375" transform="translate(313.636 298.146)"/></g></g></g><g fill="#191300"><g><g><path d="M 3.3125 -6.6875 C 2.519531 -7.257812 1.898438 -7.984375 1.453125 -8.859375 C 1.003906 -9.734375 0.78125 -10.664062 0.78125 -11.65625 C 0.78125 -12.488281 0.9375 -13.265625 1.25 -13.984375 C 1.570312 -14.703125 2.003906 -15.328125 2.546875 -15.859375 C 3.085938 -16.390625 3.71875 -16.8125 4.4375 -17.125 C 5.164062 -17.4375 5.945312 -17.59375 6.78125 -17.59375 C 7.601562 -17.59375 8.375 -17.4375 9.09375 -17.125 C 9.820312 -16.8125 10.457031 -16.390625 11 -15.859375 C 11.539062 -15.328125 11.96875 -14.703125 12.28125 -13.984375 C 12.601562 -13.265625 12.765625 -12.488281 12.765625 -11.65625 C 12.765625 -11.082031 12.671875 -10.535156 12.484375 -10.015625 C 12.304688 -9.492188 12.085938 -8.972656 11.828125 -8.453125 C 11.765625 -8.316406 11.648438 -8.09375 11.484375 -7.78125 C 11.328125 -7.476562 11.132812 -7.117188 10.90625 -6.703125 C 10.675781 -6.285156 10.425781 -5.828125 10.15625 -5.328125 C 9.882812 -4.828125 9.609375 -4.332031 9.328125 -3.84375 C 8.679688 -2.6875 7.972656 -1.40625 7.203125 0 L 4.53125 0 L 7.84375 -5.953125 C 6.988281 -5.742188 6.164062 -5.707031 5.375 -5.84375 C 4.582031 -5.976562 3.894531 -6.257812 3.3125 -6.6875 Z M 6.78125 -15.234375 C 6.289062 -15.234375 5.828125 -15.140625 5.390625 -14.953125 C 4.953125 -14.765625 4.566406 -14.507812 4.234375 -14.1875 C 3.910156 -13.875 3.65625 -13.492188 3.46875 -13.046875 C 3.28125 -12.609375 3.1875 -12.144531 3.1875 -11.65625 C 3.1875 -11.039062 3.320312 -10.46875 3.59375 -9.9375 C 3.863281 -9.40625 4.234375 -8.976562 4.703125 -8.65625 C 4.992188 -8.4375 5.335938 -8.265625 5.734375 -8.140625 C 6.140625 -8.023438 6.554688 -7.972656 6.984375 -7.984375 C 7.410156 -8.003906 7.832031 -8.09375 8.25 -8.25 C 8.675781 -8.414062 9.0625 -8.6875 9.40625 -9.0625 L 9.5 -9.21875 C 9.71875 -9.632812 9.914062 -10.070312 10.09375 -10.53125 C 10.269531 -10.988281 10.359375 -11.363281 10.359375 -11.65625 C 10.359375 -12.144531 10.265625 -12.609375 10.078125 -13.046875 C 9.890625 -13.492188 9.628906 -13.875 9.296875 -14.1875 C 8.972656 -14.507812 8.59375 -14.765625 8.15625 -14.953125 C 7.726562 -15.140625 7.269531 -15.234375 6.78125 -15.234375 Z M 6.78125 -15.234375" transform="translate(327.253 298.146)"/></g></g></g><g fill="#191300"><g><g><path d="M 3.03125 -15.0625 L 0.703125 -15.0625 L 0.703125 -17.375 L 5.609375 -17.375 L 5.609375 0 L 3.03125 0 Z M 3.03125 -15.0625" transform="translate(340.87 298.146)"/></g></g></g></svg>