<svg xmlns="http://www.w3.org/2000/svg" width="637.5" viewBox="0 0 637.5 375" height="375" version="1.0"><defs><clipPath id="a"><path d="M 175.992188 44.890625 L 461.742188 44.890625 L 461.742188 330.640625 L 175.992188 330.640625 Z M 175.992188 44.890625"/></clipPath></defs><path fill="#A1967F" d="M 318.878906 57.894531 L 448.769531 187.789062 L 318.875 317.679688 L 188.984375 187.785156 Z M 318.878906 57.894531"/><g clip-path="url(#a)"><path fill="#A1967F" d="M 318.867188 330.640625 L 175.992188 187.765625 L 318.867188 44.890625 L 461.742188 187.765625 Z M 177.8125 187.765625 L 318.867188 328.820312 L 459.921875 187.765625 L 318.867188 46.710938 Z M 177.8125 187.765625"/></g><g fill="#7B1914"><g><g><path d="M 40.246094 -68.796875 C 39.214844 -68.796875 38.613281 -68.28125 38.355469 -67.25 L 28.808594 -24.421875 L 19.261719 -67.25 C 19.003906 -68.28125 18.402344 -68.796875 17.371094 -68.796875 L 6.019531 -68.796875 C 4.902344 -68.796875 4.300781 -68.195312 4.300781 -67.074219 L 4.300781 -1.71875 C 4.300781 -0.601562 4.902344 0 6.019531 0 L 13.929688 0 C 15.050781 0 15.652344 -0.601562 15.652344 -1.71875 L 15.652344 -40.417969 L 16.253906 -40.417969 L 24.765625 -1.546875 C 25.023438 -0.515625 25.625 0 26.660156 0 L 30.871094 0 C 31.902344 0 32.507812 -0.515625 32.765625 -1.546875 L 41.277344 -40.417969 L 41.878906 -40.417969 L 41.878906 -1.71875 C 41.878906 -0.601562 42.480469 0 43.597656 0 L 51.597656 0 C 52.714844 0 53.316406 -0.601562 53.316406 -1.71875 L 53.316406 -67.074219 C 53.316406 -68.195312 52.714844 -68.796875 51.597656 -68.796875 Z M 40.246094 -68.796875" transform="translate(93.281 210.388)"/></g></g></g><g fill="#7B1914"><g><g><path d="M 4.300781 -12.382812 C 4.300781 -4.300781 8.597656 0 16.683594 0 L 26.316406 0 C 34.398438 0 38.699219 -4.300781 38.699219 -12.382812 L 38.699219 -56.414062 C 38.699219 -64.496094 34.398438 -68.796875 26.316406 -68.796875 L 16.683594 -68.796875 C 8.597656 -68.796875 4.300781 -64.496094 4.300781 -56.414062 Z M 19.175781 -11.09375 C 16.941406 -11.09375 15.738281 -12.210938 15.738281 -14.53125 L 15.738281 -54.261719 C 15.738281 -56.5 16.941406 -57.703125 19.175781 -57.703125 L 24.164062 -57.703125 C 26.402344 -57.703125 27.605469 -56.5 27.605469 -54.261719 L 27.605469 -14.53125 C 27.605469 -12.210938 26.402344 -11.09375 24.164062 -11.09375 Z M 19.175781 -11.09375" transform="translate(150.896 210.388)"/></g></g></g><g fill="#7B1914"><g><g><path d="M 30.699219 -68.796875 C 29.753906 -68.796875 29.324219 -68.28125 29.324219 -67.421875 L 29.324219 -31.128906 L 28.808594 -31.128906 L 15.738281 -67.679688 C 15.480469 -68.453125 14.964844 -68.796875 14.1875 -68.796875 L 5.675781 -68.796875 C 4.816406 -68.796875 4.300781 -68.28125 4.300781 -67.421875 L 4.300781 -1.375 C 4.300781 -0.515625 4.816406 0 5.675781 0 L 14.621094 0 C 15.566406 0 15.996094 -0.515625 15.996094 -1.375 L 15.996094 -37.835938 L 16.425781 -37.835938 L 29.582031 -1.117188 C 29.839844 -0.34375 30.355469 0 31.128906 0 L 39.644531 0 C 40.503906 0 41.019531 -0.515625 41.019531 -1.375 L 41.019531 -67.421875 C 41.019531 -68.28125 40.503906 -68.796875 39.644531 -68.796875 Z M 30.699219 -68.796875" transform="translate(193.892 210.388)"/></g></g></g><g fill="#7B1914"><g><g><path d="M 3.957031 -68.796875 C 3.097656 -68.796875 2.578125 -68.28125 2.578125 -67.421875 L 2.578125 -58.820312 C 2.578125 -57.960938 3.097656 -57.445312 3.957031 -57.445312 L 13.929688 -57.445312 L 13.929688 -1.375 C 13.929688 -0.429688 14.445312 0 15.308594 0 L 24.25 0 C 25.195312 0 25.625 -0.429688 25.625 -1.375 L 25.625 -57.445312 L 35.601562 -57.445312 C 36.546875 -57.445312 36.976562 -57.960938 36.976562 -58.820312 L 36.976562 -67.421875 C 36.976562 -68.28125 36.546875 -68.796875 35.601562 -68.796875 Z M 3.957031 -68.796875" transform="translate(239.21 210.388)"/></g></g></g><g fill="#7B1914"><g><g><path d="M 38.613281 -67.421875 C 38.613281 -68.28125 38.269531 -68.796875 37.234375 -68.796875 L 5.589844 -68.796875 C 4.816406 -68.796875 4.300781 -68.28125 4.300781 -67.421875 L 4.300781 -1.375 C 4.300781 -0.515625 4.816406 0 5.589844 0 L 37.234375 0 C 38.269531 0 38.613281 -0.515625 38.613281 -1.375 L 38.613281 -9.976562 C 38.613281 -10.921875 38.269531 -11.351562 37.234375 -11.351562 L 15.738281 -11.351562 L 15.738281 -28.722656 L 32.164062 -28.722656 C 33.023438 -28.722656 33.539062 -29.238281 33.539062 -30.183594 L 33.539062 -38.699219 C 33.539062 -39.644531 33.023438 -40.160156 32.164062 -40.160156 L 15.738281 -40.160156 L 15.738281 -57.359375 L 37.234375 -57.359375 C 38.269531 -57.359375 38.613281 -57.960938 38.613281 -58.820312 Z M 38.613281 -67.421875" transform="translate(278.766 210.388)"/></g></g></g><g fill="#7B1914"><g><g><path d="M 38.785156 -56.414062 C 38.785156 -64.496094 34.398438 -68.796875 26.402344 -68.796875 L 16.769531 -68.796875 C 8.683594 -68.796875 4.300781 -64.496094 4.300781 -56.414062 L 4.300781 -12.382812 C 4.300781 -4.300781 8.683594 0 16.769531 0 L 26.402344 0 C 34.398438 0 38.785156 -4.300781 38.785156 -12.382812 L 38.785156 -21.671875 C 38.785156 -22.53125 38.269531 -23.046875 37.40625 -23.046875 L 28.808594 -23.046875 C 27.863281 -23.046875 27.433594 -22.53125 27.433594 -21.671875 L 27.433594 -14.792969 C 27.433594 -12.46875 26.226562 -11.351562 23.992188 -11.351562 L 19.519531 -11.351562 C 17.285156 -11.351562 16.082031 -12.46875 16.082031 -14.792969 L 16.082031 -54.003906 C 16.082031 -56.242188 17.199219 -57.445312 19.519531 -57.445312 L 23.992188 -57.445312 C 26.226562 -57.445312 27.433594 -56.242188 27.433594 -54.003906 L 27.433594 -47.125 C 27.433594 -46.265625 27.863281 -45.75 28.808594 -45.75 L 37.40625 -45.75 C 38.269531 -45.75 38.785156 -46.265625 38.785156 -47.125 Z M 38.785156 -56.414062" transform="translate(321.676 210.388)"/></g></g></g><g fill="#7B1914"><g><g><path d="M 45.75 0 C 46.78125 0 47.125 -0.515625 46.953125 -1.460938 L 32.679688 -67.59375 C 32.507812 -68.453125 31.988281 -68.796875 31.214844 -68.796875 L 19.261719 -68.796875 C 18.488281 -68.796875 17.972656 -68.453125 17.800781 -67.59375 L 3.527344 -1.460938 C 3.269531 -0.515625 3.699219 0 4.644531 0 L 13.84375 0 C 14.621094 0 15.050781 -0.429688 15.222656 -1.203125 L 17.542969 -13.757812 L 32.851562 -13.757812 L 35.257812 -1.203125 C 35.429688 -0.429688 35.859375 0 36.632812 0 Z M 30.699219 -23.734375 L 19.691406 -23.734375 L 25.195312 -53.746094 Z M 30.699219 -23.734375" transform="translate(364.758 210.388)"/></g></g></g><g fill="#7B1914"><g><g><path d="M 39.644531 -56.414062 C 39.644531 -64.496094 35.34375 -68.796875 27.261719 -68.796875 L 5.675781 -68.796875 C 4.816406 -68.796875 4.300781 -68.28125 4.300781 -67.421875 L 4.300781 -1.375 C 4.300781 -0.515625 4.816406 0 5.675781 0 L 14.621094 0 C 15.480469 0 15.996094 -0.515625 15.996094 -1.375 L 15.996094 -23.046875 L 21.929688 -23.046875 L 27.691406 -1.203125 C 27.863281 -0.429688 28.292969 0 29.152344 0 L 38.097656 0 C 39.042969 0 39.558594 -0.515625 39.300781 -1.546875 L 33.367188 -24.078125 C 37.492188 -25.882812 39.644531 -29.667969 39.644531 -35.429688 Z M 15.996094 -34.398438 L 15.996094 -57.445312 L 24.507812 -57.445312 C 26.746094 -57.445312 27.949219 -56.242188 27.949219 -54.003906 L 27.949219 -37.835938 C 27.949219 -35.601562 26.746094 -34.398438 24.507812 -34.398438 Z M 15.996094 -34.398438" transform="translate(415.15 210.388)"/></g></g></g><g fill="#7B1914"><g><g><path d="M 15.996094 -11.351562 L 36.460938 -11.351562 C 37.40625 -11.351562 37.835938 -10.835938 37.835938 -9.976562 L 37.835938 -1.375 C 37.835938 -0.429688 37.40625 0 36.460938 0 L 5.675781 0 C 4.816406 0 4.300781 -0.429688 4.300781 -1.375 L 4.300781 -67.421875 C 4.300781 -68.28125 4.816406 -68.796875 5.675781 -68.796875 L 14.621094 -68.796875 C 15.566406 -68.796875 15.996094 -68.28125 15.996094 -67.421875 Z M 15.996094 -11.351562" transform="translate(459.092 210.388)"/></g></g></g><g fill="#7B1914"><g><g><path d="M 4.300781 -12.382812 C 4.300781 -4.300781 8.597656 0 16.683594 0 L 26.316406 0 C 34.398438 0 38.699219 -4.300781 38.699219 -12.382812 L 38.699219 -56.414062 C 38.699219 -64.496094 34.398438 -68.796875 26.316406 -68.796875 L 16.683594 -68.796875 C 8.597656 -68.796875 4.300781 -64.496094 4.300781 -56.414062 Z M 19.175781 -11.09375 C 16.941406 -11.09375 15.738281 -12.210938 15.738281 -14.53125 L 15.738281 -54.261719 C 15.738281 -56.5 16.941406 -57.703125 19.175781 -57.703125 L 24.164062 -57.703125 C 26.402344 -57.703125 27.605469 -56.5 27.605469 -54.261719 L 27.605469 -14.53125 C 27.605469 -12.210938 26.402344 -11.09375 24.164062 -11.09375 Z M 19.175781 -11.09375" transform="translate(501.228 210.388)"/></g></g></g><path d="M 314.84375 103.421875 C 317.96875 102.023438 316.417969 94.519531 312.21875 91.691406 C 308.023438 88.863281 302.773438 89.597656 295.324219 95.460938 C 287.871094 101.328125 274.542969 114.417969 254.289062 114.945312 C 234.035156 115.464844 217.765625 95.777344 217.664062 77.132812 C 217.558594 58.488281 230.152344 51.890625 237.707031 52.101562 C 245.261719 52.308594 251.769531 57.757812 251.769531 64.5625 C 251.769531 71.371094 245.261719 71.164062 243.375 67.914062 C 241.660156 64.96875 244.109375 63.410156 242.847656 62.574219 C 241.589844 61.734375 239.597656 62.785156 239.597656 65.714844 C 239.597656 68.648438 243.089844 72.355469 247.046875 72.839844 C 253.03125 73.570312 256.703125 66.761719 253.660156 59.433594 C 250.585938 52.03125 240.121094 44.875 227.105469 52.621094 C 214.09375 60.375 210.421875 78.808594 216.929688 95.460938 C 223.433594 112.117188 237.183594 120.386719 253.34375 122.378906 C 269.507812 124.371094 284.199219 116.515625 292.488281 110.542969 C 300.78125 104.574219 303.507812 102.375 308.335938 102.375 C 313.164062 102.375 311.800781 104.785156 314.84375 103.421875 Z M 314.84375 103.421875"/><path d="M 322.898438 103.421875 C 319.773438 102.023438 321.324219 94.519531 325.523438 91.691406 C 329.71875 88.863281 334.96875 89.597656 342.417969 95.460938 C 349.871094 101.328125 363.199219 114.417969 383.453125 114.945312 C 403.707031 115.464844 419.972656 95.777344 420.078125 77.132812 C 420.183594 58.488281 407.589844 51.890625 400.035156 52.101562 C 392.480469 52.308594 385.972656 57.757812 385.972656 64.5625 C 385.972656 71.371094 392.480469 71.164062 394.367188 67.914062 C 396.085938 64.96875 393.632812 63.410156 394.890625 62.574219 C 396.152344 61.734375 398.148438 62.785156 398.148438 65.714844 C 398.148438 68.648438 394.652344 72.355469 390.695312 72.839844 C 384.710938 73.570312 381.039062 66.761719 384.082031 59.433594 C 387.15625 52.03125 397.621094 44.875 410.636719 52.621094 C 423.648438 60.375 427.320312 78.808594 420.8125 95.460938 C 414.308594 112.117188 400.558594 120.386719 384.398438 122.378906 C 368.234375 124.371094 353.542969 116.515625 345.253906 110.542969 C 336.960938 104.574219 334.234375 102.375 329.40625 102.375 C 324.578125 102.375 325.941406 104.785156 322.898438 103.421875 Z M 322.898438 103.421875"/><g fill="#7B1914"><g><g><path d="M 12.46875 -4.421875 C 12.46875 -3.816406 12.351562 -3.242188 12.125 -2.703125 C 11.894531 -2.171875 11.578125 -1.703125 11.171875 -1.296875 C 10.773438 -0.890625 10.300781 -0.570312 9.75 -0.34375 C 9.207031 -0.113281 8.632812 0 8.03125 0 L 1.25 0 L 1.25 -15.859375 L 7.453125 -15.859375 C 7.984375 -15.859375 8.488281 -15.753906 8.96875 -15.546875 C 9.445312 -15.335938 9.863281 -15.050781 10.21875 -14.6875 C 10.570312 -14.332031 10.851562 -13.910156 11.0625 -13.421875 C 11.269531 -12.941406 11.375 -12.425781 11.375 -11.875 C 11.375 -11.1875 11.257812 -10.5625 11.03125 -10 C 10.8125 -9.445312 10.453125 -8.976562 9.953125 -8.59375 C 10.796875 -8.269531 11.425781 -7.734375 11.84375 -6.984375 C 12.257812 -6.234375 12.46875 -5.378906 12.46875 -4.421875 Z M 3.578125 -9.4375 C 4.171875 -9.414062 4.722656 -9.40625 5.234375 -9.40625 L 7.46875 -9.40625 C 8.03125 -9.40625 8.503906 -9.617188 8.890625 -10.046875 C 9.285156 -10.472656 9.484375 -10.984375 9.484375 -11.578125 C 9.484375 -12.191406 9.285156 -12.707031 8.890625 -13.125 C 8.503906 -13.539062 8.03125 -13.75 7.46875 -13.75 L 3.578125 -13.75 Z M 3.578125 -2.171875 C 3.679688 -2.148438 3.910156 -2.140625 4.265625 -2.140625 L 8.03125 -2.140625 C 8.34375 -2.140625 8.632812 -2.207031 8.90625 -2.34375 C 9.1875 -2.476562 9.429688 -2.660156 9.640625 -2.890625 C 9.847656 -3.117188 10.007812 -3.390625 10.125 -3.703125 C 10.25 -4.023438 10.3125 -4.363281 10.3125 -4.71875 C 10.3125 -5.070312 10.25 -5.398438 10.125 -5.703125 C 10.007812 -6.015625 9.847656 -6.285156 9.640625 -6.515625 C 9.429688 -6.742188 9.1875 -6.925781 8.90625 -7.0625 C 8.632812 -7.195312 8.34375 -7.265625 8.03125 -7.265625 L 3.578125 -7.265625 Z M 3.578125 -2.171875" transform="translate(184.059 246.802)"/></g></g></g><g fill="#7B1914"><g><g><path d="M 2.796875 0 L 0.25 0 L 6.84375 -15.859375 L 9.40625 -15.859375 L 16.015625 0 L 13.484375 0 L 11.40625 -4.96875 L 4.859375 -4.96875 Z M 5.75 -7.109375 L 10.515625 -7.109375 L 8.140625 -12.828125 Z M 5.75 -7.109375" transform="translate(215.358 246.802)"/></g></g></g><g fill="#7B1914"><g><g><path d="M 14.328125 0 L 11.40625 0 L 6.421875 -6.84375 L 3.640625 -6.84375 L 3.640625 0 L 1.296875 0 L 1.296875 -15.859375 L 7.734375 -15.859375 C 8.359375 -15.859375 8.953125 -15.738281 9.515625 -15.5 C 10.078125 -15.257812 10.5625 -14.9375 10.96875 -14.53125 C 11.375 -14.132812 11.695312 -13.660156 11.9375 -13.109375 C 12.175781 -12.566406 12.296875 -11.984375 12.296875 -11.359375 C 12.296875 -10.835938 12.210938 -10.34375 12.046875 -9.875 C 11.890625 -9.414062 11.664062 -9 11.375 -8.625 C 11.082031 -8.257812 10.734375 -7.9375 10.328125 -7.65625 C 9.921875 -7.382812 9.484375 -7.179688 9.015625 -7.046875 Z M 7.734375 -9.03125 C 8.046875 -9.03125 8.34375 -9.09375 8.625 -9.21875 C 8.914062 -9.34375 9.160156 -9.507812 9.359375 -9.71875 C 9.554688 -9.9375 9.710938 -10.1875 9.828125 -10.46875 C 9.953125 -10.757812 10.015625 -11.070312 10.015625 -11.40625 C 10.015625 -11.726562 9.953125 -12.03125 9.828125 -12.3125 C 9.710938 -12.601562 9.554688 -12.851562 9.359375 -13.0625 C 9.160156 -13.28125 8.914062 -13.453125 8.625 -13.578125 C 8.34375 -13.703125 8.046875 -13.765625 7.734375 -13.765625 L 3.640625 -13.765625 L 3.640625 -9.015625 Z M 7.734375 -9.03125" transform="translate(249.607 246.802)"/></g></g></g><g fill="#7B1914"><g><g><path d="M 12.46875 -4.421875 C 12.46875 -3.816406 12.351562 -3.242188 12.125 -2.703125 C 11.894531 -2.171875 11.578125 -1.703125 11.171875 -1.296875 C 10.773438 -0.890625 10.300781 -0.570312 9.75 -0.34375 C 9.207031 -0.113281 8.632812 0 8.03125 0 L 1.25 0 L 1.25 -15.859375 L 7.453125 -15.859375 C 7.984375 -15.859375 8.488281 -15.753906 8.96875 -15.546875 C 9.445312 -15.335938 9.863281 -15.050781 10.21875 -14.6875 C 10.570312 -14.332031 10.851562 -13.910156 11.0625 -13.421875 C 11.269531 -12.941406 11.375 -12.425781 11.375 -11.875 C 11.375 -11.1875 11.257812 -10.5625 11.03125 -10 C 10.8125 -9.445312 10.453125 -8.976562 9.953125 -8.59375 C 10.796875 -8.269531 11.425781 -7.734375 11.84375 -6.984375 C 12.257812 -6.234375 12.46875 -5.378906 12.46875 -4.421875 Z M 3.578125 -9.4375 C 4.171875 -9.414062 4.722656 -9.40625 5.234375 -9.40625 L 7.46875 -9.40625 C 8.03125 -9.40625 8.503906 -9.617188 8.890625 -10.046875 C 9.285156 -10.472656 9.484375 -10.984375 9.484375 -11.578125 C 9.484375 -12.191406 9.285156 -12.707031 8.890625 -13.125 C 8.503906 -13.539062 8.03125 -13.75 7.46875 -13.75 L 3.578125 -13.75 Z M 3.578125 -2.171875 C 3.679688 -2.148438 3.910156 -2.140625 4.265625 -2.140625 L 8.03125 -2.140625 C 8.34375 -2.140625 8.632812 -2.207031 8.90625 -2.34375 C 9.1875 -2.476562 9.429688 -2.660156 9.640625 -2.890625 C 9.847656 -3.117188 10.007812 -3.390625 10.125 -3.703125 C 10.25 -4.023438 10.3125 -4.363281 10.3125 -4.71875 C 10.3125 -5.070312 10.25 -5.398438 10.125 -5.703125 C 10.007812 -6.015625 9.847656 -6.285156 9.640625 -6.515625 C 9.429688 -6.742188 9.1875 -6.925781 8.90625 -7.0625 C 8.632812 -7.195312 8.34375 -7.265625 8.03125 -7.265625 L 3.578125 -7.265625 Z M 3.578125 -2.171875" transform="translate(282.157 246.802)"/></g></g></g><g fill="#7B1914"><g><g><path d="M 10.9375 -15.859375 L 10.9375 -13.75 L 3.578125 -13.75 L 3.578125 -9.4375 L 10.125 -9.4375 L 10.125 -7.265625 L 3.578125 -7.265625 L 3.578125 -2.171875 L 10.9375 -2.171875 L 10.9375 0 L 1.25 0 L 1.25 -15.859375 Z M 10.9375 -15.859375" transform="translate(313.456 246.802)"/></g></g></g><g fill="#7B1914"><g><g><path d="M 2.796875 0 L 0.25 0 L 6.84375 -15.859375 L 9.40625 -15.859375 L 16.015625 0 L 13.484375 0 L 11.40625 -4.96875 L 4.859375 -4.96875 Z M 5.75 -7.109375 L 10.515625 -7.109375 L 8.140625 -12.828125 Z M 5.75 -7.109375" transform="translate(343.616 246.802)"/></g></g></g><g fill="#7B1914"><g><g><path d="M 14.328125 0 L 11.40625 0 L 6.421875 -6.84375 L 3.640625 -6.84375 L 3.640625 0 L 1.296875 0 L 1.296875 -15.859375 L 7.734375 -15.859375 C 8.359375 -15.859375 8.953125 -15.738281 9.515625 -15.5 C 10.078125 -15.257812 10.5625 -14.9375 10.96875 -14.53125 C 11.375 -14.132812 11.695312 -13.660156 11.9375 -13.109375 C 12.175781 -12.566406 12.296875 -11.984375 12.296875 -11.359375 C 12.296875 -10.835938 12.210938 -10.34375 12.046875 -9.875 C 11.890625 -9.414062 11.664062 -9 11.375 -8.625 C 11.082031 -8.257812 10.734375 -7.9375 10.328125 -7.65625 C 9.921875 -7.382812 9.484375 -7.179688 9.015625 -7.046875 Z M 7.734375 -9.03125 C 8.046875 -9.03125 8.34375 -9.09375 8.625 -9.21875 C 8.914062 -9.34375 9.160156 -9.507812 9.359375 -9.71875 C 9.554688 -9.9375 9.710938 -10.1875 9.828125 -10.46875 C 9.953125 -10.757812 10.015625 -11.070312 10.015625 -11.40625 C 10.015625 -11.726562 9.953125 -12.03125 9.828125 -12.3125 C 9.710938 -12.601562 9.554688 -12.851562 9.359375 -13.0625 C 9.160156 -13.28125 8.914062 -13.453125 8.625 -13.578125 C 8.34375 -13.703125 8.046875 -13.765625 7.734375 -13.765625 L 3.640625 -13.765625 L 3.640625 -9.015625 Z M 7.734375 -9.03125" transform="translate(377.865 246.802)"/></g></g></g><g fill="#7B1914"><g><g><path d="M 5.546875 -13.9375 L 5.546875 -1.921875 L 6.703125 -1.921875 L 6.703125 0 L 2.03125 0 L 2.03125 -1.921875 L 3.21875 -1.921875 L 3.21875 -13.9375 L 2.03125 -13.9375 L 2.03125 -15.859375 L 6.703125 -15.859375 L 6.703125 -13.9375 Z M 5.546875 -13.9375" transform="translate(410.415 246.802)"/></g></g></g><g fill="#7B1914"><g><g><path d="M 2.796875 0 L 0.25 0 L 6.84375 -15.859375 L 9.40625 -15.859375 L 16.015625 0 L 13.484375 0 L 11.40625 -4.96875 L 4.859375 -4.96875 Z M 5.75 -7.109375 L 10.515625 -7.109375 L 8.140625 -12.828125 Z M 5.75 -7.109375" transform="translate(437.089 246.802)"/></g></g></g><path transform="matrix(.75 0 0 .75 184.023 225.052)" fill="none" d="M 16.682356 23.097832 C 16.682356 23.910332 16.531315 24.681165 16.218815 25.399915 C 15.911523 26.108248 15.489648 26.738457 14.95319 27.274915 C 14.411523 27.811374 13.781314 28.233249 13.052148 28.54054 C 12.328189 28.847832 11.562564 28.998874 10.744856 28.998874 L 1.713605 28.998874 L 1.713605 7.863456 L 9.974023 7.863456 C 10.687564 7.863456 11.359439 8.004081 11.994856 8.285331 C 12.635481 8.561372 13.197981 8.941581 13.671939 9.415539 C 14.145898 9.889497 14.520898 10.451997 14.79694 11.097831 C 15.07819 11.743664 15.218815 12.431164 15.218815 13.170748 C 15.218815 14.082206 15.072981 14.910331 14.770898 15.660331 C 14.474023 16.405123 13.989648 17.035331 13.312564 17.550956 C 14.442773 17.967623 15.286523 18.681165 15.849023 19.686373 C 16.406315 20.686373 16.682356 21.826998 16.682356 23.097832 Z M 4.812564 16.415539 C 5.609439 16.441581 6.343814 16.451998 7.020897 16.451998 L 10.005273 16.451998 C 10.760481 16.451998 11.395898 16.170748 11.911523 15.603039 C 12.427148 15.035331 12.687564 14.353039 12.687564 13.556164 C 12.687564 12.743664 12.427148 12.056164 11.911523 11.504081 C 11.395898 10.946789 10.760481 10.665539 10.005273 10.665539 L 4.812564 10.665539 Z M 4.812564 26.108248 C 4.953189 26.129082 5.260481 26.139498 5.739647 26.139498 L 10.744856 26.139498 C 11.161523 26.139498 11.557356 26.050957 11.921939 25.868665 C 12.291731 25.691582 12.614648 25.44679 12.890689 25.144707 C 13.171939 24.832207 13.390689 24.467623 13.546939 24.050957 C 13.708398 23.63429 13.786523 23.186373 13.786523 22.712415 C 13.786523 22.233248 13.708398 21.79054 13.546939 21.389498 C 13.390689 20.97804 13.171939 20.623873 12.890689 20.316581 C 12.614648 20.00929 12.291731 19.764498 11.921939 19.582206 C 11.557356 19.405123 11.161523 19.311373 10.744856 19.311373 L 4.812564 19.311373 Z M 45.505275 28.998874 L 42.104233 28.998874 L 50.8959 7.863456 L 54.328192 7.863456 L 63.125068 28.998874 L 59.755276 28.998874 L 56.984442 22.38429 L 48.250067 22.38429 Z M 49.442775 19.514498 L 55.786526 19.514498 L 52.630275 11.889498 Z M 106.557362 28.998874 L 102.645904 28.998874 L 96.005278 19.879081 L 92.307361 19.879081 L 92.307361 28.998874 L 89.177153 28.998874 L 89.177153 7.863456 L 97.755278 7.863456 C 98.59382 7.863456 99.380279 8.024914 100.119862 8.347831 C 100.869862 8.660331 101.515695 9.087414 102.067779 9.623872 C 102.614654 10.160331 103.046945 10.790539 103.359445 11.519706 C 103.682362 12.243664 103.843821 13.019706 103.843821 13.853039 C 103.843821 14.550956 103.734446 15.212414 103.515695 15.826998 C 103.296945 16.441581 102.994862 16.998873 102.604237 17.493665 C 102.213612 17.988456 101.75007 18.420748 101.213612 18.79054 C 100.682362 19.160331 100.09382 19.431165 99.458404 19.613456 Z M 97.755278 16.957206 C 98.171945 16.957206 98.572987 16.873873 98.953195 16.707206 C 99.328195 16.535331 99.651112 16.316581 99.916737 16.040539 C 100.18757 15.759289 100.401112 15.420748 100.557362 15.035331 C 100.71882 14.644706 100.796945 14.233248 100.796945 13.795748 C 100.796945 13.358248 100.71882 12.951998 100.557362 12.571789 C 100.401112 12.196789 100.18757 11.863456 99.916737 11.576997 C 99.651112 11.290539 99.328195 11.061372 98.953195 10.894706 C 98.572987 10.722831 98.171945 10.639497 97.755278 10.639497 L 92.307361 10.639497 L 92.307361 16.983248 Z M 147.484448 23.097832 C 147.484448 23.910332 147.328198 24.681165 147.015698 25.399915 C 146.708407 26.108248 146.286532 26.738457 145.750073 27.274915 C 145.213615 27.811374 144.578198 28.233249 143.849032 28.54054 C 143.130282 28.847832 142.359448 28.998874 141.54174 28.998874 L 132.510489 28.998874 L 132.510489 7.863456 L 140.770906 7.863456 C 141.484448 7.863456 142.161531 8.004081 142.796948 8.285331 C 143.437573 8.561372 143.994865 8.941581 144.468823 9.415539 C 144.942782 9.889497 145.32299 10.451997 145.599032 11.097831 C 145.880282 11.743664 146.020907 12.431164 146.020907 13.170748 C 146.020907 14.082206 145.869865 14.910331 145.567782 15.660331 C 145.270907 16.405123 144.786532 17.035331 144.114657 17.550956 C 145.244865 17.967623 146.088615 18.681165 146.645907 19.686373 C 147.203198 20.686373 147.484448 21.826998 147.484448 23.097832 Z M 135.614656 16.415539 C 136.406323 16.441581 137.140698 16.451998 137.817781 16.451998 L 140.802156 16.451998 C 141.557365 16.451998 142.192781 16.170748 142.708406 15.603039 C 143.22924 15.035331 143.484448 14.353039 143.484448 13.556164 C 143.484448 12.743664 143.22924 12.056164 142.708406 11.504081 C 142.192781 10.946789 141.557365 10.665539 140.802156 10.665539 L 135.614656 10.665539 Z M 135.614656 26.108248 C 135.755281 26.129082 136.062573 26.139498 136.536531 26.139498 L 141.54174 26.139498 C 141.958406 26.139498 142.35424 26.050957 142.724031 25.868665 C 143.093823 25.691582 143.411532 25.44679 143.692782 25.144707 C 143.974032 24.832207 144.192782 24.467623 144.343823 24.050957 C 144.505282 23.63429 144.583407 23.186373 144.583407 22.712415 C 144.583407 22.233248 144.505282 21.79054 144.343823 21.389498 C 144.192782 20.97804 143.974032 20.623873 143.692782 20.316581 C 143.411532 20.00929 143.093823 19.764498 142.724031 19.582206 C 142.35424 19.405123 141.958406 19.311373 141.54174 19.311373 L 135.614656 19.311373 Z M 187.156326 7.863456 L 187.156326 10.665539 L 177.343825 10.665539 L 177.343825 16.415539 L 186.078201 16.415539 L 186.078201 19.311373 L 177.343825 19.311373 L 177.343825 26.108248 L 187.156326 26.108248 L 187.156326 28.998874 L 174.244867 28.998874 L 174.244867 7.863456 Z M 216.515703 28.998874 L 213.11987 28.998874 L 221.911537 7.863456 L 225.33862 7.863456 L 234.135496 28.998874 L 230.765704 28.998874 L 227.994871 22.38429 L 219.260495 22.38429 Z M 220.453203 19.514498 L 226.802162 19.514498 L 223.640704 11.889498 Z M 277.567791 28.998874 L 273.656332 28.998874 L 267.015707 19.879081 L 263.31779 19.879081 L 263.31779 28.998874 L 260.187581 28.998874 L 260.187581 7.863456 L 268.765707 7.863456 C 269.604248 7.863456 270.390707 8.024914 271.135498 8.347831 C 271.88029 8.660331 272.526124 9.087414 273.078207 9.623872 C 273.625082 10.160331 274.057374 10.790539 274.369874 11.519706 C 274.69279 12.243664 274.854249 13.019706 274.854249 13.853039 C 274.854249 14.550956 274.744874 15.212414 274.526124 15.826998 C 274.307374 16.441581 274.00529 16.998873 273.614665 17.493665 C 273.229249 17.988456 272.765707 18.420748 272.22404 18.79054 C 271.69279 19.160331 271.104248 19.431165 270.468832 19.613456 Z M 268.765707 16.957206 C 269.187582 16.957206 269.583415 16.873873 269.963623 16.707206 C 270.338623 16.535331 270.66154 16.316581 270.927165 16.040539 C 271.197998 15.759289 271.41154 15.420748 271.56779 15.035331 C 271.729248 14.644706 271.812582 14.233248 271.812582 13.795748 C 271.812582 13.358248 271.729248 12.951998 271.56779 12.571789 C 271.41154 12.196789 271.197998 11.863456 270.927165 11.576997 C 270.66154 11.290539 270.338623 11.061372 269.963623 10.894706 C 269.583415 10.722831 269.187582 10.639497 268.765707 10.639497 L 263.31779 10.639497 L 263.31779 16.983248 Z M 309.250084 10.425956 L 309.250084 26.436373 L 310.802168 26.436373 L 310.802168 28.998874 L 304.573001 28.998874 L 304.573001 26.436373 L 306.151126 26.436373 L 306.151126 10.425956 L 304.573001 10.425956 L 304.573001 7.863456 L 310.802168 7.863456 L 310.802168 10.425956 Z M 341.14592 28.998874 L 337.750086 28.998874 L 346.541754 7.863456 L 349.968837 7.863456 L 358.765713 28.998874 L 355.395921 28.998874 L 352.625087 22.38429 L 343.890712 22.38429 Z M 345.08342 19.514498 L 351.432379 19.514498 L 348.27092 11.889498 Z M 345.08342 19.514498" stroke="#191300" stroke-width=".28"/><g fill="#191300"><g><g><path d="M 3.546875 -0.03125 C 3.023438 -0.03125 2.578125 -0.210938 2.203125 -0.578125 C 1.828125 -0.941406 1.640625 -1.363281 1.640625 -1.84375 C 1.640625 -2.34375 1.828125 -2.78125 2.203125 -3.15625 C 2.578125 -3.53125 3.023438 -3.71875 3.546875 -3.71875 C 4.046875 -3.71875 4.484375 -3.53125 4.859375 -3.15625 C 5.234375 -2.78125 5.421875 -2.34375 5.421875 -1.84375 C 5.421875 -1.363281 5.234375 -0.941406 4.859375 -0.578125 C 4.484375 -0.210938 4.046875 -0.03125 3.546875 -0.03125 Z M 3.546875 -0.03125" transform="translate(285.273 281.36)"/></g></g></g><g fill="#191300"><g><g><path d="M 3.546875 -0.03125 C 3.023438 -0.03125 2.578125 -0.210938 2.203125 -0.578125 C 1.828125 -0.941406 1.640625 -1.363281 1.640625 -1.84375 C 1.640625 -2.34375 1.828125 -2.78125 2.203125 -3.15625 C 2.578125 -3.53125 3.023438 -3.71875 3.546875 -3.71875 C 4.046875 -3.71875 4.484375 -3.53125 4.859375 -3.15625 C 5.234375 -2.78125 5.421875 -2.34375 5.421875 -1.84375 C 5.421875 -1.363281 5.234375 -0.941406 4.859375 -0.578125 C 4.484375 -0.210938 4.046875 -0.03125 3.546875 -0.03125 Z M 3.546875 -0.03125" transform="translate(345.161 281.36)"/></g></g></g><g fill="#191300"><g><g><path d="M 2.765625 -13.75 L 0.640625 -13.75 L 0.640625 -15.859375 L 5.125 -15.859375 L 5.125 0 L 2.765625 0 Z M 2.765625 -13.75" transform="translate(299.635 281.699)"/></g></g></g><g fill="#191300"><g><g><path d="M 3.015625 -6.109375 C 2.296875 -6.628906 1.734375 -7.285156 1.328125 -8.078125 C 0.921875 -8.878906 0.71875 -9.734375 0.71875 -10.640625 C 0.71875 -11.398438 0.863281 -12.109375 1.15625 -12.765625 C 1.445312 -13.421875 1.835938 -13.988281 2.328125 -14.46875 C 2.816406 -14.957031 3.390625 -15.34375 4.046875 -15.625 C 4.710938 -15.90625 5.425781 -16.046875 6.1875 -16.046875 C 6.9375 -16.046875 7.640625 -15.90625 8.296875 -15.625 C 8.960938 -15.34375 9.539062 -14.957031 10.03125 -14.46875 C 10.53125 -13.988281 10.925781 -13.421875 11.21875 -12.765625 C 11.507812 -12.109375 11.65625 -11.398438 11.65625 -10.640625 C 11.65625 -10.117188 11.570312 -9.617188 11.40625 -9.140625 C 11.238281 -8.660156 11.035156 -8.1875 10.796875 -7.71875 C 10.734375 -7.59375 10.628906 -7.390625 10.484375 -7.109375 C 10.335938 -6.828125 10.160156 -6.492188 9.953125 -6.109375 C 9.742188 -5.734375 9.515625 -5.316406 9.265625 -4.859375 C 9.023438 -4.410156 8.773438 -3.960938 8.515625 -3.515625 C 7.921875 -2.453125 7.273438 -1.28125 6.578125 0 L 4.140625 0 L 7.15625 -5.4375 C 6.382812 -5.238281 5.632812 -5.203125 4.90625 -5.328125 C 4.1875 -5.453125 3.554688 -5.710938 3.015625 -6.109375 Z M 6.1875 -13.90625 C 5.738281 -13.90625 5.3125 -13.816406 4.90625 -13.640625 C 4.507812 -13.472656 4.160156 -13.242188 3.859375 -12.953125 C 3.566406 -12.660156 3.332031 -12.3125 3.15625 -11.90625 C 2.988281 -11.507812 2.90625 -11.085938 2.90625 -10.640625 C 2.90625 -10.078125 3.023438 -9.550781 3.265625 -9.0625 C 3.515625 -8.582031 3.859375 -8.191406 4.296875 -7.890625 C 4.566406 -7.703125 4.882812 -7.550781 5.25 -7.4375 C 5.613281 -7.320312 5.988281 -7.269531 6.375 -7.28125 C 6.757812 -7.300781 7.144531 -7.382812 7.53125 -7.53125 C 7.914062 -7.6875 8.269531 -7.929688 8.59375 -8.265625 L 8.671875 -8.40625 C 8.867188 -8.789062 9.046875 -9.191406 9.203125 -9.609375 C 9.367188 -10.023438 9.453125 -10.367188 9.453125 -10.640625 C 9.453125 -11.085938 9.363281 -11.507812 9.1875 -11.90625 C 9.019531 -12.3125 8.785156 -12.660156 8.484375 -12.953125 C 8.191406 -13.242188 7.847656 -13.472656 7.453125 -13.640625 C 7.054688 -13.816406 6.632812 -13.90625 6.1875 -13.90625 Z M 6.1875 -13.90625" transform="translate(306.319 281.699)"/></g></g></g><g fill="#191300"><g><g><path d="M 3.015625 -6.109375 C 2.296875 -6.628906 1.734375 -7.285156 1.328125 -8.078125 C 0.921875 -8.878906 0.71875 -9.734375 0.71875 -10.640625 C 0.71875 -11.398438 0.863281 -12.109375 1.15625 -12.765625 C 1.445312 -13.421875 1.835938 -13.988281 2.328125 -14.46875 C 2.816406 -14.957031 3.390625 -15.34375 4.046875 -15.625 C 4.710938 -15.90625 5.425781 -16.046875 6.1875 -16.046875 C 6.9375 -16.046875 7.640625 -15.90625 8.296875 -15.625 C 8.960938 -15.34375 9.539062 -14.957031 10.03125 -14.46875 C 10.53125 -13.988281 10.925781 -13.421875 11.21875 -12.765625 C 11.507812 -12.109375 11.65625 -11.398438 11.65625 -10.640625 C 11.65625 -10.117188 11.570312 -9.617188 11.40625 -9.140625 C 11.238281 -8.660156 11.035156 -8.1875 10.796875 -7.71875 C 10.734375 -7.59375 10.628906 -7.390625 10.484375 -7.109375 C 10.335938 -6.828125 10.160156 -6.492188 9.953125 -6.109375 C 9.742188 -5.734375 9.515625 -5.316406 9.265625 -4.859375 C 9.023438 -4.410156 8.773438 -3.960938 8.515625 -3.515625 C 7.921875 -2.453125 7.273438 -1.28125 6.578125 0 L 4.140625 0 L 7.15625 -5.4375 C 6.382812 -5.238281 5.632812 -5.203125 4.90625 -5.328125 C 4.1875 -5.453125 3.554688 -5.710938 3.015625 -6.109375 Z M 6.1875 -13.90625 C 5.738281 -13.90625 5.3125 -13.816406 4.90625 -13.640625 C 4.507812 -13.472656 4.160156 -13.242188 3.859375 -12.953125 C 3.566406 -12.660156 3.332031 -12.3125 3.15625 -11.90625 C 2.988281 -11.507812 2.90625 -11.085938 2.90625 -10.640625 C 2.90625 -10.078125 3.023438 -9.550781 3.265625 -9.0625 C 3.515625 -8.582031 3.859375 -8.191406 4.296875 -7.890625 C 4.566406 -7.703125 4.882812 -7.550781 5.25 -7.4375 C 5.613281 -7.320312 5.988281 -7.269531 6.375 -7.28125 C 6.757812 -7.300781 7.144531 -7.382812 7.53125 -7.53125 C 7.914062 -7.6875 8.269531 -7.929688 8.59375 -8.265625 L 8.671875 -8.40625 C 8.867188 -8.789062 9.046875 -9.191406 9.203125 -9.609375 C 9.367188 -10.023438 9.453125 -10.367188 9.453125 -10.640625 C 9.453125 -11.085938 9.363281 -11.507812 9.1875 -11.90625 C 9.019531 -12.3125 8.785156 -12.660156 8.484375 -12.953125 C 8.191406 -13.242188 7.847656 -13.472656 7.453125 -13.640625 C 7.054688 -13.816406 6.632812 -13.90625 6.1875 -13.90625 Z M 6.1875 -13.90625" transform="translate(318.748 281.699)"/></g></g></g><g fill="#191300"><g><g><path d="M 2.765625 -13.75 L 0.640625 -13.75 L 0.640625 -15.859375 L 5.125 -15.859375 L 5.125 0 L 2.765625 0 Z M 2.765625 -13.75" transform="translate(331.177 281.699)"/></g></g></g></svg>